<svg width="495" height="455" viewBox="0 0 495 455" fill="none" xmlns="http://www.w3.org/2000/svg">
<g clip-path="url(#clip0_1055_12484)">
<path d="M267.71 250.336C267.799 250.336 267.855 250.333 267.874 250.332L278.458 250.333V248.776H267.836C267.59 248.785 262.572 248.926 257.949 243.328C251.059 234.985 245.401 214.332 257.573 163.318C273.94 94.723 260.289 34.1231 253.661 11.2527C253.334 10.1212 253.276 8.92942 253.49 7.77153C253.705 6.61363 254.186 5.52134 254.896 4.58096C255.606 3.64058 256.526 2.87787 257.582 2.3531C258.638 1.82834 259.802 1.55589 260.982 1.55729H419.048C420.25 1.5589 421.434 1.84324 422.505 2.38724C423.576 2.93123 424.503 3.71956 425.212 4.68822C428.02 8.54266 431.873 15.9474 434.285 29.3364L435.82 29.0611C433.357 15.3813 429.378 7.75869 426.474 3.77271C425.621 2.60552 424.503 1.6556 423.213 1.00009C421.923 0.344577 420.496 0.00193945 419.048 4.23739e-06H260.982C259.56 -0.00136114 258.158 0.327257 256.885 0.959895C255.612 1.59253 254.504 2.51186 253.649 3.64524C252.793 4.77862 252.213 6.095 251.955 7.49038C251.697 8.88576 251.768 10.3219 252.162 11.6854C258.756 34.4371 272.336 94.7226 256.055 162.958C243.712 214.689 249.646 235.79 256.797 244.382C261.513 250.049 266.71 250.336 267.71 250.336Z" fill="#DAD9D7"/>
<path d="M296.191 278.758C296.279 278.758 296.335 278.755 296.354 278.754L306.938 278.755V277.198H296.316C296.069 277.206 291.052 277.348 286.429 271.75C279.54 263.407 273.882 242.754 286.054 191.74C302.42 123.145 288.77 62.5449 282.141 39.6746C281.815 38.5431 281.756 37.3513 281.971 36.1934C282.185 35.0355 282.666 33.9432 283.376 33.0028C284.086 32.0625 285.006 31.2997 286.062 30.775C287.119 30.2502 288.283 29.9778 289.463 29.9792H447.528C448.73 29.9808 449.914 30.2651 450.985 30.8091C452.056 31.3531 452.984 32.1414 453.692 33.1101C456.5 36.9645 460.354 44.3693 462.765 57.7583L464.301 57.483C461.837 43.8031 457.858 36.1806 454.954 32.1946C454.101 31.0274 452.984 30.0775 451.694 29.422C450.403 28.7665 448.976 28.4238 447.528 28.4219H289.463C288.041 28.4205 286.638 28.7491 285.365 29.3818C284.092 30.0144 282.984 30.9337 282.129 32.0671C281.273 33.2005 280.694 34.5169 280.436 35.9123C280.178 37.3076 280.248 38.7438 280.642 40.1072C287.236 62.859 300.816 123.145 284.535 191.38C272.192 243.111 278.126 264.212 285.277 272.804C289.994 278.471 295.191 278.758 296.191 278.758Z" fill="#DAD9D7"/>
<path d="M324.669 307.176C324.758 307.176 324.813 307.173 324.833 307.172L480.462 307.173C481.961 307.175 483.436 306.81 484.761 306.111C486.085 305.412 487.218 304.399 488.059 303.162C488.901 301.925 489.425 300.501 489.588 299.014C489.75 297.528 489.544 296.024 488.989 294.636C483.343 280.557 475.74 246.781 488.262 178.743C503.05 98.4022 489.811 69.367 483.433 60.6126C482.58 59.4453 481.462 58.4954 480.172 57.8399C478.882 57.1844 477.455 56.8418 476.007 56.8398H317.941C316.519 56.8385 315.116 57.1671 313.844 57.7997C312.571 58.4324 311.463 59.3517 310.607 60.4851C309.752 61.6185 309.172 62.9348 308.914 64.3302C308.656 65.7256 308.727 67.1618 309.121 68.5252C315.715 91.277 329.294 151.562 313.014 219.798C300.671 271.529 306.604 292.63 313.756 301.222C318.472 306.889 323.669 307.176 324.669 307.176ZM476.007 58.3971C477.208 58.3987 478.393 58.6831 479.464 59.2271C480.535 59.7711 481.462 60.5594 482.171 61.5281C488.431 70.1201 501.406 98.714 486.728 178.461C474.764 243.458 480.567 277.827 487.541 295.214C488.011 296.361 488.187 297.607 488.054 298.839C487.921 300.072 487.482 301.251 486.778 302.272C486.08 303.303 485.139 304.146 484.038 304.729C482.937 305.312 481.709 305.617 480.462 305.616H324.795C324.549 305.628 319.531 305.767 314.908 300.168C308.018 291.825 302.36 271.172 314.532 220.158C330.898 151.563 317.248 90.9629 310.62 68.0925C310.293 66.961 310.235 65.7693 310.449 64.6114C310.663 63.4535 311.145 62.3612 311.855 61.4208C312.565 60.4804 313.484 59.7177 314.541 59.1929C315.597 58.6682 316.761 58.3957 317.941 58.3971H476.007Z" fill="#3F3D56"/>
<path d="M344.826 126.919H468.891C470.546 126.919 472.134 126.263 473.305 125.095C474.475 123.927 475.133 122.342 475.133 120.69C475.133 119.038 474.475 117.454 473.305 116.285C472.134 115.117 470.546 114.461 468.891 114.461H344.826C343.17 114.461 341.583 115.117 340.412 116.285C339.241 117.454 338.584 119.038 338.584 120.69C338.584 122.342 339.241 123.927 340.412 125.095C341.583 126.263 343.17 126.919 344.826 126.919Z" fill="#FAB510"/>
<path d="M344.826 153.392H468.891C470.546 153.392 472.134 152.736 473.305 151.567C474.475 150.399 475.133 148.815 475.133 147.163C475.133 145.511 474.475 143.926 473.305 142.758C472.134 141.59 470.546 140.934 468.891 140.934H344.826C343.17 140.934 341.583 141.59 340.412 142.758C339.241 143.926 338.584 145.511 338.584 147.163C338.584 148.815 339.241 150.399 340.412 151.567C341.583 152.736 343.17 153.392 344.826 153.392Z" fill="#DAD9D7"/>
<path d="M344.826 179.865H468.891C470.546 179.865 472.134 179.208 473.305 178.04C474.475 176.872 475.133 175.287 475.133 173.635C475.133 171.983 474.475 170.399 473.305 169.231C472.134 168.063 470.546 167.406 468.891 167.406H344.826C343.17 167.406 341.583 168.063 340.412 169.231C339.241 170.399 338.584 171.983 338.584 173.635C338.584 175.287 339.241 176.872 340.412 178.04C341.583 179.208 343.17 179.865 344.826 179.865Z" fill="#DAD9D7"/>
<path d="M335.463 206.341H459.527C461.183 206.341 462.771 205.685 463.941 204.517C465.112 203.348 465.77 201.764 465.77 200.112C465.77 198.46 465.112 196.875 463.941 195.707C462.771 194.539 461.183 193.883 459.527 193.883H335.463C333.807 193.883 332.219 194.539 331.049 195.707C329.878 196.875 329.22 198.46 329.22 200.112C329.22 201.764 329.878 203.348 331.049 204.517C332.219 205.685 333.807 206.341 335.463 206.341Z" fill="#DAD9D7"/>
<path d="M335.463 232.814H459.527C461.183 232.814 462.771 232.157 463.941 230.989C465.112 229.821 465.77 228.237 465.77 226.585C465.77 224.933 465.112 223.348 463.941 222.18C462.771 221.012 461.183 220.355 459.527 220.355H335.463C333.807 220.355 332.219 221.012 331.049 222.18C329.878 223.348 329.22 224.933 329.22 226.585C329.22 228.237 329.878 229.821 331.049 230.989C332.219 232.157 333.807 232.814 335.463 232.814Z" fill="#DAD9D7"/>
<path d="M410.37 100.443H468.891C470.546 100.443 472.134 99.7864 473.305 98.6182C474.475 97.45 475.133 95.8656 475.133 94.2135C475.133 92.5614 474.475 90.977 473.305 89.8088C472.134 88.6407 470.546 87.9844 468.891 87.9844H410.37C408.714 87.9844 407.126 88.6407 405.956 89.8088C404.785 90.977 404.127 92.5614 404.127 94.2135C404.127 95.8656 404.785 97.45 405.956 98.6182C407.126 99.7864 408.714 100.443 410.37 100.443Z" fill="#FAB510"/>
<path d="M417.926 275.5C416.666 270.178 410.749 268.434 405.911 268.629C402.854 268.835 399.822 269.313 396.851 270.059C393.742 270.753 390.664 271.575 387.601 272.447C381.984 274.045 376.425 275.978 370.716 277.228C365.963 278.269 360.797 278.879 356.057 277.443C351.501 276.062 347.635 272.672 346.396 267.986C345.228 263.57 346.831 258.741 351.12 256.723C355.03 254.883 359.97 255.819 361.908 259.981C364.094 264.674 361.91 269.791 358.45 273.187C356.483 275.03 354.329 276.663 352.022 278.059C349.681 279.651 347.075 280.816 344.325 281.499C339.812 282.461 334.434 281.043 332.107 276.74C331.589 275.766 331.278 274.696 331.192 273.597C331.054 272.1 333.396 272.11 333.533 273.597C333.928 277.882 338.957 279.889 342.717 279.419C345.256 278.999 347.68 278.06 349.838 276.661C351.92 275.449 353.893 274.06 355.735 272.508C358.925 269.754 361.915 265.221 359.772 260.923C358.028 257.423 353.481 257.458 350.715 259.715C347.366 262.448 347.963 267.41 350.172 270.656C352.618 274.25 357.052 275.757 361.232 275.92C365.774 276.096 370.278 275.056 374.619 273.826C380.013 272.298 385.353 270.587 390.772 269.148C393.849 268.331 396.95 267.594 400.082 267.02C403.044 266.369 406.086 266.159 409.11 266.397C413.994 266.96 418.98 269.797 420.183 274.879C420.529 276.341 418.272 276.965 417.926 275.5Z" fill="#FAB510"/>
<path d="M178.773 407.571C178.638 422.903 177.513 438.21 175.403 453.398C175.33 453.931 175.249 454.465 175.175 454.998L31.2896 454.196C30.8671 453.666 30.4513 453.13 30.0484 452.587C28.7051 450.792 27.4461 448.946 26.2903 447.036C20.7351 437.835 18.1919 427.061 20.7404 419.629L20.7861 419.513C21.3362 417.886 22.2031 416.383 23.337 415.09C29.1477 408.563 40.8963 409.651 51.5579 414.92C41.9951 404.474 34.3806 391.293 33.8021 379.528C33.2348 368.052 39.248 359.854 45.7701 352.887C45.9841 352.657 46.1981 352.433 46.4121 352.209C46.516 352.094 46.626 351.985 46.7296 351.87C51.8182 346.561 57.7507 341.327 66.3375 341.96C75.7551 342.656 86.1964 350.527 93.5173 359.7C100.838 368.866 105.703 379.279 110.635 389.442C115.572 399.598 120.914 410.014 128.837 418.694C118.106 405.149 109.453 389.738 106.257 374.749C103.061 359.76 105.874 345.364 115.438 338.305C118.342 336.228 121.702 334.875 125.237 334.359C125.649 334.291 126.068 334.235 126.494 334.186C135.348 333.181 145.919 336.237 154.913 343.541C164.818 351.583 171.685 363.506 175.102 374.824C178.519 386.142 178.883 397.038 178.773 407.571Z" fill="#FAB510" fill-opacity="0.27"/>
<path d="M84.6328 454.496L81.8814 454.481C81.0078 453.936 80.1301 453.397 79.2482 452.865C78.7023 452.521 78.15 452.19 77.5975 451.852C68.4712 446.29 59.2878 440.955 50.0474 435.847C40.8153 430.734 31.5369 425.857 22.212 421.216C21.9648 421.108 21.7632 420.918 21.6421 420.678C21.521 420.437 21.4881 420.162 21.5491 419.9C21.5591 419.866 21.5746 419.833 21.595 419.804C21.725 419.56 22.0157 419.459 22.44 419.667C23.5838 420.239 24.7342 420.812 25.8779 421.397C35.2282 426.118 44.5384 431.074 53.8085 436.266C63.0721 441.456 72.283 446.875 81.4412 452.523C81.6337 452.64 81.8265 452.763 82.0191 452.88C82.8924 453.419 83.7595 453.958 84.6328 454.496Z" fill="white"/>
<path d="M120.109 454.694L118.408 454.684C118.024 454.149 117.647 453.613 117.263 453.077C108.248 440.461 99.2339 427.844 90.222 415.228C75.464 394.574 60.7104 373.919 45.9612 353.265C45.8737 353.153 45.8087 353.026 45.7697 352.891C45.6436 352.433 45.9802 352.165 46.4117 352.212C46.5936 352.238 46.7678 352.303 46.9228 352.401C47.0779 352.5 47.21 352.63 47.3106 352.783C55.5847 364.366 63.8568 375.945 72.1268 387.52C86.808 408.071 101.487 428.62 116.164 449.167C117.098 450.471 118.031 451.782 118.965 453.086C119.349 453.622 119.732 454.158 120.109 454.694Z" fill="white"/>
<path d="M158.012 444.831C157.925 447.692 157.735 450.508 157.487 453.298C157.44 453.831 157.391 454.365 157.343 454.898L155.558 454.888C155.613 454.355 155.667 453.821 155.715 453.288C156.093 449.258 156.36 445.182 156.397 440.996C156.444 429.389 155.311 417.808 153.014 406.43C150.572 394.18 147.066 382.164 142.536 370.52C137.781 358.239 132.049 346.358 125.393 334.99C125.268 334.805 125.212 334.582 125.236 334.359C125.309 333.852 125.987 333.701 126.493 334.186C126.593 334.281 126.679 334.39 126.749 334.509C127.573 335.922 128.381 337.339 129.174 338.761C135.584 350.191 141.071 362.114 145.582 374.415C149.879 386.097 153.147 398.131 155.35 410.379C157.413 421.742 158.305 433.287 158.012 444.831V444.831Z" fill="white"/>
<path d="M331.919 276.055C332.215 275.809 332.431 275.481 332.541 275.113C332.65 274.744 332.648 274.352 332.534 273.985C332.421 273.618 332.201 273.292 331.902 273.05C331.603 272.807 331.239 272.658 330.856 272.622C326.6 272.211 322.305 272.651 318.221 273.914L276.62 286.735C276.082 286.901 275.581 287.171 275.147 287.53C274.713 287.889 274.355 288.329 274.092 288.827C273.828 289.324 273.666 289.868 273.613 290.428C273.561 290.988 273.62 291.553 273.786 292.09C273.952 292.628 274.223 293.127 274.583 293.56C274.942 293.993 275.384 294.351 275.882 294.613C276.381 294.876 276.926 295.038 277.487 295.091C278.048 295.143 278.614 295.084 279.153 294.918L320.754 282.098C324.84 280.843 328.636 278.789 331.919 276.055V276.055Z" fill="#3F3D56"/>
<path d="M161.391 329.314C162.521 328.841 163.534 328.126 164.357 327.22C165.181 326.315 165.795 325.24 166.157 324.072C166.519 322.904 166.62 321.67 166.453 320.459C166.286 319.247 165.855 318.087 165.19 317.06L172.32 279.847L154.146 278.434L153.049 314.833C151.394 316.062 150.249 317.854 149.83 319.87C149.41 321.886 149.747 323.986 150.775 325.771C151.803 327.556 153.452 328.902 155.409 329.555C157.365 330.208 159.494 330.122 161.391 329.314Z" fill="#FDE6AF"/>
<path d="M173.443 310.106L191.954 224.08C192.714 220.547 192.036 216.857 190.07 213.822C188.104 210.787 185.01 208.656 181.469 207.897C177.929 207.139 174.231 207.815 171.19 209.777C168.148 211.739 166.013 214.826 165.253 218.36L146.742 304.385C146.547 305.294 146.722 306.242 147.227 307.022C147.733 307.802 148.528 308.351 149.438 308.547L169.273 312.797C169.724 312.894 170.189 312.901 170.643 312.818C171.096 312.735 171.529 312.564 171.917 312.314C172.304 312.064 172.638 311.741 172.9 311.362C173.162 310.983 173.346 310.556 173.443 310.106V310.106Z" fill="#FAB510"/>
<path d="M203.825 445.434H213.39L217.941 408.613L203.822 408.614L203.825 445.434Z" fill="#FDE6AF"/>
<path d="M220.22 442.707H201.771V454.299H231.836C231.836 452.776 231.535 451.269 230.952 449.863C230.368 448.456 229.512 447.179 228.434 446.102C227.355 445.026 226.075 444.172 224.665 443.589C223.256 443.007 221.745 442.707 220.22 442.707V442.707Z" fill="#2F2E41"/>
<path d="M171.828 444.656H181.394L185.945 407.836L171.826 407.837L171.828 444.656Z" fill="#FDE6AF"/>
<path d="M188.228 441.93H169.779V453.521H199.844C199.844 451.999 199.543 450.492 198.96 449.085C198.376 447.679 197.52 446.401 196.442 445.325C195.363 444.248 194.082 443.395 192.673 442.812C191.264 442.229 189.753 441.93 188.228 441.93V441.93Z" fill="#2F2E41"/>
<path d="M215.283 438.563C215.642 438.27 215.938 437.907 216.155 437.498C216.371 437.089 216.504 436.64 216.544 436.179L227.665 314.104C227.708 313.63 227.654 313.152 227.506 312.7C227.359 312.247 227.12 311.83 226.805 311.473C226.49 311.115 226.106 310.826 225.675 310.622C225.244 310.417 224.776 310.303 224.3 310.285L168.526 308.198C168.043 308.18 167.562 308.261 167.112 308.437C166.663 308.614 166.254 308.88 165.913 309.221C165.571 309.562 165.303 309.969 165.127 310.418C164.95 310.866 164.868 311.346 164.885 311.828L169.344 433.434C169.376 434.285 169.718 435.095 170.305 435.714C170.892 436.332 171.685 436.716 172.535 436.795L183.781 437.815C184.247 437.858 184.717 437.806 185.163 437.665C185.609 437.523 186.023 437.294 186.379 436.99C186.735 436.687 187.027 436.315 187.237 435.898C187.447 435.48 187.571 435.025 187.602 434.558L192.763 357.304C192.767 357.156 192.8 357.009 192.861 356.874C192.922 356.738 193.009 356.616 193.118 356.515C193.226 356.413 193.354 356.335 193.494 356.283C193.633 356.231 193.782 356.208 193.93 356.214H193.935C194.084 356.209 194.233 356.232 194.373 356.285C194.512 356.337 194.64 356.417 194.749 356.519C194.857 356.622 194.944 356.745 195.004 356.881C195.065 357.017 195.097 357.164 195.099 357.313L199.718 435.088C199.764 435.921 200.108 436.71 200.687 437.311C201.266 437.913 202.042 438.288 202.874 438.367L212.698 439.348C213.16 439.396 213.626 439.351 214.07 439.216C214.514 439.081 214.926 438.859 215.283 438.563H215.283Z" fill="#2F2E41"/>
<path d="M193.832 189.616C183.247 189.616 174.667 181.054 174.667 170.491C174.667 159.929 183.247 151.367 193.832 151.367C204.416 151.367 212.996 159.929 212.996 170.491C212.996 181.054 204.416 189.616 193.832 189.616Z" fill="#FDE6AF"/>
<path d="M230.734 314.932C231.075 314.546 231.326 314.088 231.468 313.593C231.61 313.097 231.64 312.576 231.555 312.068C228.017 290.607 230.011 259.062 232.307 236.378C232.907 230.361 231.907 224.292 229.408 218.783C226.909 213.274 223 208.52 218.074 204.998L208.066 196.437C207.4 195.875 206.552 195.575 205.68 195.595L180.816 196.303C179.919 196.328 179.066 196.695 178.433 197.329L174.591 205.82L174.551 205.849C169.973 209.207 166.3 213.645 163.86 218.767C161.421 223.888 160.291 229.533 160.573 235.196L164.232 310.675C164.279 311.553 164.653 312.381 165.281 312.998C165.908 313.614 166.744 313.975 167.624 314.008L227.977 316.124C228.016 316.125 228.055 316.126 228.093 316.126C228.593 316.126 229.088 316.02 229.543 315.814C229.999 315.608 230.405 315.308 230.734 314.932V314.932Z" fill="#FAB510"/>
<path d="M303.126 283.435C303.156 282.212 302.918 280.998 302.427 279.878C301.935 278.757 301.204 277.758 300.284 276.95C299.364 276.142 298.278 275.545 297.102 275.202C295.926 274.858 294.689 274.776 293.477 274.961L262.371 253.238L253.64 269.207L286.472 285.103C286.919 287.113 288.089 288.89 289.76 290.097C291.432 291.303 293.489 291.856 295.542 291.651C297.595 291.445 299.501 290.495 300.899 288.981C302.296 287.467 303.089 285.493 303.126 283.435L303.126 283.435Z" fill="#FDE6AF"/>
<path d="M276.948 287.211C277.404 287.143 277.842 286.985 278.237 286.746C278.631 286.507 278.974 286.193 279.247 285.821L291.251 269.501C291.801 268.751 292.03 267.815 291.889 266.896C291.748 265.978 291.248 265.153 290.498 264.603L219.418 212.54C216.499 210.402 212.848 209.508 209.268 210.056C207.496 210.327 205.794 210.944 204.261 211.872C202.727 212.8 201.392 214.02 200.331 215.462C199.269 216.905 198.504 218.542 198.076 220.28C197.649 222.018 197.57 223.822 197.841 225.591C198.113 227.36 198.732 229.058 199.661 230.588C200.591 232.119 201.813 233.451 203.259 234.51L274.338 286.573C274.938 287.014 275.663 287.252 276.408 287.252C276.589 287.252 276.77 287.239 276.948 287.211V287.211Z" fill="#FAB510"/>
<path d="M192.85 187.521C190.308 184.411 190.586 179.675 192.626 176.216C194.666 172.758 198.129 170.377 201.692 168.516C205.254 166.656 209.039 165.193 212.393 162.978C215.746 160.763 215.599 151.386 216.492 147.474L214.363 148.182C215.181 147.137 215.444 144.049 216.262 143.005C213.856 143.242 212.006 145.522 209.6 145.759L210.988 142.04C202.737 141.532 197.607 147.254 189.356 146.746C185.268 146.495 180.829 146.335 177.468 148.672C174.547 150.702 173.069 154.216 172.099 157.633C170.016 164.97 169.693 173.189 173.29 179.918C176.887 186.646 185.179 191.18 192.423 188.75L192.85 187.521Z" fill="#2F2E41"/>
<path d="M298.067 454.729H0.780562C0.573619 454.729 0.375163 454.647 0.228832 454.501C0.0825008 454.355 0.000281572 454.157 0.000281572 453.951C0.000281572 453.744 0.0825008 453.546 0.228832 453.4C0.375163 453.254 0.573619 453.172 0.780562 453.172H298.067C298.274 453.172 298.473 453.254 298.619 453.4C298.765 453.546 298.848 453.744 298.848 453.951C298.848 454.157 298.765 454.355 298.619 454.501C298.473 454.647 298.274 454.729 298.067 454.729Z" fill="#3F3D56"/>
</g>
<defs>
<clipPath id="clip0_1055_12484">
<rect width="495" height="455" fill="white" transform="matrix(-1 0 0 1 495 0)"/>
</clipPath>
</defs>
</svg>
