<svg width="942" height="564" viewBox="0 0 942 564" fill="none" xmlns="http://www.w3.org/2000/svg">
<g clip-path="url(#clip0_1054_16072)">
<path d="M39.7972 514.957C43.7625 516.328 48.0199 516.671 52.1593 515.954C56.2987 515.237 60.1805 513.485 63.4308 510.865C71.7085 504.034 74.3042 492.784 76.4154 482.364L82.6614 451.543L69.5849 460.395C60.1804 466.761 50.5647 473.332 44.0537 482.552C37.5428 491.773 34.7022 504.361 39.9321 514.338" fill="#E6E6E6"/>
<path d="M41.8222 554.419C40.1763 542.63 38.4829 530.689 39.6402 518.774C40.6657 508.192 43.9496 497.858 50.6352 489.381C54.1839 484.891 58.502 481.044 63.3953 478.013C64.671 477.222 65.8454 479.209 64.5752 479.998C56.1081 485.258 49.559 493.026 45.8722 502.182C41.8004 512.363 41.1465 523.463 41.8479 534.278C42.2718 540.819 43.1727 547.317 44.0774 553.807C44.1489 554.1 44.1043 554.409 43.9527 554.672C43.8011 554.934 43.5538 555.13 43.2608 555.22C42.9619 555.299 42.6433 555.259 42.3741 555.109C42.1049 554.959 41.9069 554.71 41.823 554.417L41.8222 554.419Z" fill="#F2F2F2"/>
<path d="M53.6577 535.494C55.3581 538.036 57.6956 540.104 60.4451 541.5C63.1947 542.895 66.2634 543.571 69.3558 543.462C77.3046 543.091 83.9285 537.639 89.8909 532.462L107.53 517.15L95.8564 516.601C87.461 516.206 78.8491 515.835 70.8528 518.383C62.8565 520.931 55.482 527.054 54.0201 535.192" fill="#E6E6E6"/>
<path d="M37.1669 561.191C45.0908 547.407 54.281 532.088 70.7038 527.191C75.2697 525.835 80.0574 525.349 84.809 525.759C86.3067 525.887 85.9327 528.156 84.438 528.029C76.473 527.379 68.5234 529.447 61.9274 533.884C55.5801 538.132 50.6378 544.037 46.4554 550.299C43.893 554.135 41.598 558.134 39.303 562.127C38.5697 563.403 36.4251 562.481 37.1669 561.191Z" fill="#F2F2F2"/>
<path d="M832.457 17.6692H177.135V323.386H832.457V17.6692Z" fill="#E6E6E6"/>
<path d="M813.716 43.8855H195.871V298.955H813.716V43.8855Z" fill="white"/>
<path d="M832.173 0H176.851V27.3705H832.173V0Z" fill="#FAB510"/>
<path d="M197.541 17.7375C200.391 17.7375 202.701 15.4662 202.701 12.6644C202.701 9.8627 200.391 7.59143 197.541 7.59143C194.691 7.59143 192.381 9.8627 192.381 12.6644C192.381 15.4662 194.691 17.7375 197.541 17.7375Z" fill="white"/>
<path d="M217.125 17.7375C219.975 17.7375 222.285 15.4662 222.285 12.6644C222.285 9.8627 219.975 7.59143 217.125 7.59143C214.276 7.59143 211.965 9.8627 211.965 12.6644C211.965 15.4662 214.276 17.7375 217.125 17.7375Z" fill="white"/>
<path d="M236.705 17.7375C239.555 17.7375 241.866 15.4662 241.866 12.6644C241.866 9.8627 239.555 7.59143 236.705 7.59143C233.856 7.59143 231.545 9.8627 231.545 12.6644C231.545 15.4662 233.856 17.7375 236.705 17.7375Z" fill="white"/>
<path d="M341.792 239.278H654.057V186.659C654.01 181.111 652.836 175.628 650.604 170.532C648.372 165.435 645.126 160.829 641.059 156.982L640.974 156.901C635.397 151.399 616.758 137.436 597.473 138.62C587.286 139.243 578.564 144.07 571.55 152.966C549.719 180.668 521.043 171.317 505.891 163.278C492.539 156.191 478.903 152.865 465.359 153.395C446.39 154.124 419.692 160.994 400.221 189.582C392.785 200.492 376.612 215.302 341.792 224.005V239.278Z" fill="#E4E4E4"/>
<path d="M671.727 240.481H342.394C342.121 240.481 341.858 240.374 341.665 240.184C341.472 239.994 341.363 239.736 341.363 239.468V84.2808C341.363 84.0121 341.472 83.7543 341.665 83.5643C341.858 83.3743 342.121 83.2675 342.394 83.2675C342.667 83.2675 342.929 83.3743 343.123 83.5643C343.316 83.7543 343.425 84.0121 343.425 84.2808V238.454H671.727C672 238.454 672.262 238.561 672.455 238.751C672.649 238.941 672.757 239.199 672.757 239.468C672.757 239.736 672.649 239.994 672.455 240.184C672.262 240.374 672 240.481 671.727 240.481Z" fill="#3F3D56"/>
<path d="M405.038 180.815H403.016V239.067H405.038V180.815Z" fill="#3F3D56"/>
<path d="M465.559 153.608H463.537V239.065H465.559V153.608Z" fill="#3F3D56"/>
<path d="M526.206 171.49H524.184V239.06H526.206V171.49Z" fill="#3F3D56"/>
<path d="M586.844 138.708H584.822V239.07H586.844V138.708Z" fill="#3F3D56"/>
<path d="M647.486 161.562H645.465V239.07H647.486V161.562Z" fill="#3F3D56"/>
<path d="M464.675 161.061C468.09 161.061 470.859 158.339 470.859 154.981C470.859 151.623 468.09 148.901 464.675 148.901C461.259 148.901 458.491 151.623 458.491 154.981C458.491 158.339 461.259 161.061 464.675 161.061Z" fill="#FAB510"/>
<path d="M585.96 145.17C589.376 145.17 592.144 142.448 592.144 139.09C592.144 135.732 589.376 133.01 585.96 133.01C582.545 133.01 579.776 135.732 579.776 139.09C579.776 142.448 582.545 145.17 585.96 145.17Z" fill="#FAB510"/>
<path d="M525.313 177.942C528.728 177.942 531.497 175.22 531.497 171.863C531.497 168.505 528.728 165.783 525.313 165.783C521.898 165.783 519.129 168.505 519.129 171.863C519.129 175.22 521.898 177.942 525.313 177.942Z" fill="#FAB510"/>
<path d="M404.032 186.896C407.447 186.896 410.216 184.174 410.216 180.817C410.216 177.459 407.447 174.737 404.032 174.737C400.617 174.737 397.848 177.459 397.848 180.817C397.848 184.174 400.617 186.896 404.032 186.896Z" fill="#FAB510"/>
<path d="M646.612 167.033C650.027 167.033 652.796 164.311 652.796 160.953C652.796 157.595 650.027 154.873 646.612 154.873C643.196 154.873 640.428 157.595 640.428 160.953C640.428 164.311 643.196 167.033 646.612 167.033Z" fill="#FAB510"/>
<path d="M138.387 551.956H150.779L156.673 504.967L138.385 504.968L138.387 551.956Z" fill="#FFB6B6"/>
<path d="M135.224 547.986L159.627 547.985H159.628C163.753 547.986 167.708 549.596 170.625 552.464C173.541 555.331 175.18 559.219 175.18 563.274V563.771L135.225 563.773L135.224 547.986Z" fill="#2F2E41"/>
<path d="M196.996 551.956H209.388L215.282 504.967L196.994 504.968L196.996 551.956Z" fill="#FFB6B6"/>
<path d="M193.837 547.986L218.24 547.985H218.241C222.366 547.986 226.321 549.596 229.238 552.464C232.154 555.331 233.793 559.219 233.793 563.274V563.771L193.838 563.773L193.837 547.986Z" fill="#2F2E41"/>
<path d="M220.131 337.141C221.178 335.969 221.951 334.584 222.396 333.086C222.84 331.588 222.945 330.012 222.703 328.47C222.461 326.928 221.878 325.456 220.994 324.159C220.111 322.863 218.95 321.772 217.592 320.964L197.426 225.781L175.457 234.29L202.187 325.177C200.958 327.51 200.642 330.205 201.3 332.752C201.957 335.299 203.542 337.52 205.754 338.995C207.965 340.47 210.651 341.095 213.301 340.754C215.95 340.412 218.381 339.127 220.131 337.141V337.141Z" fill="#FFB6B6"/>
<path d="M125.089 318.802L115.956 327.917C115.956 327.917 106.164 363.196 124.902 406.705L137.435 532.853L159.984 534.522L166.716 387.76L197.775 436.475L192.35 534L217.276 533.437L228.541 425.372L197.775 312.605L125.089 318.802Z" fill="#2F2E41"/>
<path d="M157.026 331.096C143.273 331.002 129.537 330.11 115.891 328.425L115.342 328.353L128.953 269.542L124.266 193.872L168.524 192.381C172.53 192.239 176.449 193.556 179.528 196.08C182.607 198.604 184.629 202.158 185.206 206.058L194.264 266.43L202.643 319.991L202.53 320.152C196.509 328.833 176.377 331.096 157.026 331.096Z" fill="#FAB510"/>
<path d="M164.504 204.888L173.496 193.806C173.496 193.806 189.26 183.207 194.25 205.919C199.239 228.63 208.508 265.5 208.508 265.5L177.683 267.954L164.504 204.888Z" fill="#FAB510"/>
<path d="M79.2823 338.132C78.235 336.96 77.4619 335.575 77.0176 334.077C76.5732 332.579 76.4684 331.003 76.7105 329.461C76.9526 327.919 77.5358 326.447 78.4188 325.15C79.3019 323.854 80.4635 322.763 81.8217 321.955L101.987 226.771L123.956 235.281L97.2262 326.168C98.4552 328.501 98.7709 331.196 98.1136 333.743C97.4562 336.29 95.8715 338.511 93.6597 339.986C91.4479 341.461 88.7626 342.086 86.1128 341.745C83.463 341.403 81.0326 340.118 79.2823 338.132V338.132Z" fill="#FFB6B6"/>
<path d="M134.915 205.879L125.922 194.797C125.922 194.797 110.158 184.198 105.169 206.91C100.18 229.621 90.9102 266.491 90.9102 266.491L121.735 268.945L134.915 205.879Z" fill="#FAB510"/>
<path d="M172.817 181.314H114.195C112.989 181.313 111.833 180.841 110.98 180.003C110.127 179.165 109.648 178.028 109.646 176.843V152.001C109.646 143.172 113.214 134.705 119.564 128.462C125.914 122.219 134.526 118.712 143.506 118.712C152.486 118.712 161.098 122.219 167.448 128.462C173.798 134.705 177.365 143.172 177.365 152.001V176.843C177.364 178.028 176.884 179.165 176.032 180.003C175.179 180.841 174.023 181.313 172.817 181.314Z" fill="#2F2E41"/>
<path d="M149.979 179.822C163.689 179.822 174.803 168.896 174.803 155.417C174.803 141.938 163.689 131.011 149.979 131.011C136.269 131.011 125.154 141.938 125.154 155.417C125.154 168.896 136.269 179.822 149.979 179.822Z" fill="#FFB6B6"/>
<path d="M185.364 154.478H149.518L149.15 149.418L147.312 154.478H141.793L141.064 144.45L137.422 154.478H126.742V153.981C126.75 147 129.574 140.307 134.595 135.37C139.617 130.433 146.425 127.656 153.526 127.649H158.58C165.681 127.656 172.489 130.433 177.51 135.37C182.531 140.307 185.356 147 185.364 153.981V154.478Z" fill="#2F2E41"/>
<path d="M149.227 185.945C148.957 185.944 148.688 185.921 148.422 185.875L122.174 181.322V138.673H151.068L150.353 139.493C140.4 150.905 147.898 169.409 153.254 179.424C153.648 180.157 153.824 180.985 153.761 181.813C153.698 182.64 153.399 183.433 152.897 184.101C152.478 184.672 151.926 185.136 151.288 185.457C150.65 185.778 149.943 185.945 149.227 185.945Z" fill="#2F2E41"/>
<path d="M873.597 551.956H861.207L855.311 504.967L873.6 504.968L873.597 551.956Z" fill="#9E616A"/>
<path d="M876.755 563.773L836.8 563.771V563.274C836.8 559.219 838.439 555.331 841.355 552.464C844.271 549.596 848.227 547.986 852.351 547.985H852.352L876.755 547.986L876.755 563.773Z" fill="#2F2E41"/>
<path d="M829.129 551.956H816.739L810.843 504.967L829.132 504.968L829.129 551.956Z" fill="#9E616A"/>
<path d="M832.287 563.773L792.332 563.771V563.274C792.332 559.219 793.971 555.331 796.887 552.464C799.804 549.596 803.759 547.986 807.884 547.985H807.885L832.288 547.986L832.287 563.773Z" fill="#2F2E41"/>
<path d="M684.814 222.696C685.804 224.035 687.081 225.144 688.555 225.945C690.028 226.746 691.663 227.22 693.343 227.334C695.023 227.447 696.707 227.196 698.278 226.6C699.849 226.004 701.268 225.076 702.435 223.883L726.954 233.296L736.406 220.042L701.591 207.227C699.422 205.433 696.658 204.483 693.824 204.559C690.99 204.634 688.282 205.728 686.214 207.635C684.146 209.542 682.861 212.128 682.603 214.904C682.345 217.679 683.132 220.452 684.814 222.696Z" fill="#9E616A"/>
<path d="M828.971 302.996L796.688 313.349L807.473 538.116L832.387 538.722L845.138 380.213L848.034 538.096L878.84 539.766L890.196 302.996H828.971Z" fill="#2F2E41"/>
<path d="M807.189 170.502L890.043 152.803L899.257 222.942L891.585 256.455L894.658 307.385C894.658 307.385 829.144 339.443 796.688 313.351C796.688 313.351 822.774 245.99 807.654 214.456L807.189 170.502Z" fill="#3F3D56"/>
<path d="M821.533 180.426L807.184 170.505C807.184 170.505 806.337 169.351 794.379 183.094C782.421 196.838 758.164 218.699 758.164 218.699L717.735 203.793L710.369 230.548L757.356 252.075L823.878 208.398L821.533 180.426Z" fill="#3F3D56"/>
<path d="M894.675 333.673C896.197 332.966 897.543 331.94 898.619 330.666C899.694 329.391 900.472 327.901 900.898 326.299C901.324 324.698 901.388 323.024 901.085 321.395C900.782 319.767 900.119 318.223 899.144 316.874L913.118 294.944L901.635 283.345L882.342 314.586C880.144 316.348 878.681 318.84 878.228 321.592C877.775 324.343 878.365 327.163 879.885 329.515C881.405 331.868 883.75 333.591 886.476 334.357C889.202 335.124 892.119 334.88 894.675 333.673V333.673Z" fill="#9E616A"/>
<path d="M877.123 166.624L890.046 152.806C890.046 152.806 904.445 147.877 916.21 173.351C927.974 198.825 941.113 250.496 941.113 250.496L910.392 308.674L886.534 298.193L910.392 250.086L885.145 214.459L877.123 166.624Z" fill="#3F3D56"/>
<path d="M855.206 147.043C868.239 140.038 873.029 123.973 865.905 111.159C858.78 98.3458 842.439 93.6367 829.405 100.641C816.372 107.646 811.582 123.711 818.707 136.525C825.832 149.338 842.173 154.047 855.206 147.043Z" fill="#9E616A"/>
<path d="M867.594 102.713L868.898 100.133L862.337 96.9281C862.337 96.9281 855.1 85.3507 842.004 88.6042C828.907 91.8577 823.015 93.8049 823.015 93.8049L816.471 97.042L819.756 100.255L813.863 102.202L817.8 104.125L813.22 106.713L815.685 119.98C815.685 119.98 819.78 109.917 827.653 113.763C835.526 117.609 849.926 111.775 849.926 111.775L862.437 135.579C862.437 135.579 865.018 127.234 869.619 129.459C869.619 129.459 881.376 111.053 867.594 102.713Z" fill="#2F2E41"/>
<path d="M303.219 563.997H1.01073C0.742668 563.997 0.485584 563.892 0.296035 563.706C0.106487 563.519 0 563.266 0 563.003C0 562.739 0.106487 562.487 0.296035 562.3C0.485584 562.114 0.742668 562.009 1.01073 562.009H303.219C303.487 562.009 303.744 562.114 303.934 562.3C304.123 562.487 304.23 562.739 304.23 563.003C304.23 563.266 304.123 563.519 303.934 563.706C303.744 563.892 303.487 563.997 303.219 563.997Z" fill="#CACACA"/>
<path d="M940.983 563.997H709.526C709.258 563.997 709.001 563.892 708.812 563.706C708.622 563.519 708.516 563.266 708.516 563.003C708.516 562.739 708.622 562.487 708.812 562.3C709.001 562.114 709.258 562.009 709.526 562.009H940.983C941.252 562.009 941.509 562.114 941.698 562.3C941.888 562.487 941.994 562.739 941.994 563.003C941.994 563.266 941.888 563.519 941.698 563.706C941.509 563.892 941.252 563.997 940.983 563.997Z" fill="#CACACA"/>
</g>
<defs>
<clipPath id="clip0_1054_16072">
<rect width="942" height="564" fill="white"/>
</clipPath>
</defs>
</svg>
