<svg width="217" height="217" viewBox="0 0 217 217" fill="none" xmlns="http://www.w3.org/2000/svg">
<path d="M173.048 7.23273H18.1357C12.6129 7.23273 8.13574 11.7099 8.13574 17.2327V199.766C8.13574 205.289 12.6129 209.766 18.1357 209.766H152.862C155.399 209.766 157.842 208.802 159.694 207.068L179.88 188.18C181.901 186.29 183.048 183.646 183.048 180.879V17.2327C183.048 11.7099 178.57 7.23273 173.048 7.23273Z" fill="#3D3113"/>
<path d="M17.2228 18.9611C17.2228 18.2427 17.5104 17.5537 18.0222 17.0457C18.534 16.5378 19.2282 16.2524 19.952 16.2524H167.329C168.053 16.2524 168.747 16.5378 169.259 17.0457C169.77 17.5537 170.058 18.2427 170.058 18.9611V127.31C170.058 129.465 170.921 131.532 172.456 133.056C173.991 134.58 176.074 135.436 178.246 135.436C180.417 135.436 182.5 134.58 184.035 133.056C185.571 131.532 186.433 129.465 186.433 127.31V18.9611C186.433 13.9323 184.42 9.10947 180.838 5.55358C177.255 1.99768 172.396 0 167.329 0H19.952C14.8852 0 10.026 1.99768 6.4432 5.55358C2.86044 9.10947 0.847656 13.9323 0.847656 18.9611V197.737C0.847656 208.204 9.40642 216.698 19.952 216.698H96.3696C98.5411 216.698 100.624 215.842 102.159 214.318C103.695 212.794 104.557 210.727 104.557 208.572C104.557 206.417 103.695 204.35 102.159 202.826C100.624 201.302 98.5411 200.446 96.3696 200.446H19.952C19.2282 200.446 18.534 200.161 18.0222 199.653C17.5104 199.145 17.2228 198.456 17.2228 197.737V18.9611Z" fill="#FAB510"/>
<path d="M47.2442 54.1809C45.0728 54.1809 42.9902 55.0371 41.4547 56.561C39.9193 58.085 39.0566 60.1519 39.0566 62.3071C39.0566 64.4623 39.9193 66.5292 41.4547 68.0532C42.9902 69.5771 45.0728 70.4333 47.2442 70.4333H140.037C142.208 70.4333 144.291 69.5771 145.826 68.0532C147.362 66.5292 148.225 64.4623 148.225 62.3071C148.225 60.1519 147.362 58.085 145.826 56.561C144.291 55.0371 142.208 54.1809 140.037 54.1809H47.2442ZM39.0566 105.647C39.0566 103.492 39.9193 101.425 41.4547 99.9007C42.9902 98.3767 45.0728 97.5206 47.2442 97.5206H96.3698C98.5413 97.5206 100.624 98.3767 102.159 99.9007C103.695 101.425 104.557 103.492 104.557 105.647C104.557 107.802 103.695 109.869 102.159 111.393C100.624 112.917 98.5413 113.773 96.3698 113.773H47.2442C45.0728 113.773 42.9902 112.917 41.4547 111.393C39.9193 109.869 39.0566 107.802 39.0566 105.647Z" fill="#FAB510"/>
<path d="M200.785 172.386C200.472 173.049 200.02 173.647 199.457 174.142L157.429 213.823C156.355 214.837 154.898 215.406 153.379 215.406C151.86 215.406 150.404 214.837 149.329 213.823L130.225 195.786C129.662 195.291 129.211 194.694 128.898 194.03C128.584 193.366 128.416 192.65 128.402 191.923C128.389 191.197 128.53 190.475 128.818 189.801C129.107 189.127 129.536 188.515 130.08 188.001C130.624 187.488 131.272 187.083 131.986 186.81C132.7 186.538 133.464 186.405 134.234 186.417C135.003 186.43 135.762 186.589 136.465 186.885C137.168 187.181 137.801 187.607 138.325 188.139L153.379 202.352L172.368 184.423L191.357 166.495C191.882 165.963 192.515 165.537 193.218 165.241C193.921 164.945 194.68 164.786 195.449 164.773C196.219 164.76 196.983 164.894 197.697 165.166C198.41 165.438 199.058 165.843 199.603 166.357C200.147 166.871 200.576 167.483 200.864 168.157C201.152 168.831 201.294 169.552 201.28 170.279C201.267 171.005 201.098 171.722 200.785 172.386Z" fill="#FAB510"/>
</svg>
