<svg width="1027" height="772" viewBox="0 0 1027 772" fill="none" xmlns="http://www.w3.org/2000/svg">
<g clip-path="url(#clip0_1054_16123)">
<path opacity="0.1" d="M470.599 681.681C706.307 681.681 897.386 667.166 897.386 649.261C897.386 631.356 706.307 616.841 470.599 616.841C234.892 616.841 43.8125 631.356 43.8125 649.261C43.8125 667.166 234.892 681.681 470.599 681.681Z" fill="#FAB510"/>
<g opacity="0.1">
<path d="M848.596 464.519C846.046 456.945 835.702 453.457 825.5 456.738C824.03 457.207 822.608 457.809 821.252 458.536C820.599 458.359 819.926 458.202 819.243 458.084C819.801 455.905 820.014 453.656 819.876 451.414C823.395 449.11 826.25 445.961 828.167 442.267C830.084 438.573 830.998 434.46 830.822 430.321C834.332 428.011 837.177 424.859 839.087 421.166C840.996 417.473 841.905 413.363 841.728 409.228C845.264 406.948 848.117 403.788 849.992 400.072C854.913 390.543 852.874 379.834 845.433 376.15C837.992 372.466 827.96 377.211 823.039 386.741C821.089 390.418 820.177 394.539 820.398 398.677C816.889 400.987 814.043 404.139 812.134 407.832C810.224 411.525 809.315 415.635 809.493 419.77C805.983 422.08 803.137 425.232 801.228 428.925C799.319 432.617 798.409 436.728 798.587 440.862C795.069 443.169 792.215 446.321 790.299 450.016C788.382 453.711 787.467 457.825 787.641 461.965C784.104 464.245 781.252 467.406 779.377 471.121C778.452 472.912 777.75 474.805 777.288 476.76C776.054 474.996 774.551 473.429 772.829 472.113C772.632 470.613 772.296 469.133 771.825 467.692C768.471 457.701 759.473 451.61 751.741 454.106C744.009 456.601 740.434 466.71 743.788 476.701C745.16 480.985 747.803 484.774 751.379 487.587C751.576 489.087 751.912 490.567 752.384 492.007C754.332 497.804 758.178 502.284 762.576 504.533C762.187 505.785 761.908 507.067 761.743 508.365C757.596 512.267 754.926 517.432 754.171 523.013C750.02 526.917 747.35 532.086 746.599 537.671C744.544 539.601 742.846 541.865 741.578 544.361C736.648 553.891 738.686 564.609 746.127 568.283C753.569 571.957 763.601 567.232 768.531 557.693C769.831 555.205 770.68 552.516 771.042 549.745C775.189 545.842 777.859 540.678 778.613 535.097C782.764 531.193 785.434 526.024 786.185 520.439C790.304 516.527 792.942 511.362 793.666 505.791C797.832 501.888 800.511 496.709 801.258 491.113C802.536 489.929 803.677 488.611 804.662 487.184C808.765 488.008 813.019 487.747 816.984 486.427C818.454 485.959 819.876 485.357 821.232 484.63C825.673 485.775 830.362 485.611 834.708 484.158C844.881 480.906 851.137 472.104 848.596 464.519Z" fill="#3F3D56"/>
<g opacity="0.1">
<path d="M830.586 434.666C829.532 435.679 828.374 436.585 827.131 437.367C827.289 440.172 826.911 442.98 826.017 445.649C826.807 444.58 827.512 443.454 828.125 442.279C829.371 439.892 830.202 437.319 830.586 434.666Z" fill="black"/>
<path d="M841.5 413.574C840.446 414.588 839.289 415.493 838.046 416.275C838.204 419.08 837.826 421.888 836.931 424.557C837.724 423.487 838.429 422.357 839.04 421.178C840.281 418.792 841.112 416.223 841.5 413.574Z" fill="black"/>
<path d="M816.767 405.72C816.675 404.274 816.732 402.822 816.938 401.387C814.988 403.268 813.366 405.448 812.138 407.842C811.531 409.022 811.021 410.248 810.611 411.506C812.273 409.216 814.362 407.253 816.767 405.72Z" fill="black"/>
<path d="M747.544 533.366C748.421 532.17 749.413 531.058 750.506 530.045C750.677 528.713 750.97 527.398 751.38 526.116C750.507 527.263 749.737 528.483 749.08 529.761C748.473 530.922 747.96 532.127 747.544 533.366Z" fill="black"/>
<path d="M755.116 518.729C755.993 517.533 756.985 516.421 758.078 515.409C758.242 514.11 758.521 512.828 758.912 511.577C758.078 512.692 757.339 513.871 756.702 515.104C756.081 516.272 755.551 517.484 755.116 518.729Z" fill="black"/>
<path d="M819.676 455.759C818.628 456.773 817.473 457.675 816.231 458.451C816.369 460.693 816.155 462.943 815.599 465.122C816.276 465.236 816.947 465.387 817.607 465.574C818.963 464.846 820.385 464.245 821.855 463.776C832.078 460.494 842.411 463.982 844.952 471.557C845.582 473.46 845.693 475.493 845.273 477.451C848.637 473.58 850.033 468.865 848.587 464.542C846.036 456.968 835.693 453.48 825.49 456.761C824.02 457.23 822.598 457.832 821.242 458.559C820.59 458.382 819.917 458.225 819.234 458.107C819.425 457.321 819.565 456.545 819.676 455.759Z" fill="black"/>
<path d="M743.809 540.725C742.936 541.873 742.167 543.092 741.51 544.37C740.9 545.555 740.383 546.783 739.963 548.044C740.86 546.842 741.868 545.724 742.976 544.704C743.131 543.356 743.41 542.024 743.809 540.725Z" fill="black"/>
<path d="M805.807 426.821C805.715 425.374 805.773 423.923 805.978 422.488C804.028 424.368 802.406 426.549 801.178 428.943C800.571 430.123 800.061 431.348 799.651 432.607C801.313 430.317 803.402 428.354 805.807 426.821Z" fill="black"/>
<path d="M790.048 512.832C789.85 514.294 789.513 515.735 789.043 517.135C789.829 516.062 790.531 514.933 791.142 513.756C791.8 512.494 792.348 511.179 792.779 509.826C791.957 510.902 791.043 511.908 790.048 512.832Z" fill="black"/>
<path d="M774.909 542.131C774.712 543.592 774.375 545.033 773.905 546.434C774.697 545.363 775.402 544.233 776.014 543.054C776.668 541.79 777.215 540.476 777.65 539.125C776.828 540.203 775.91 541.208 774.909 542.131Z" fill="black"/>
<path d="M782.476 527.471C782.279 528.933 781.943 530.374 781.472 531.774C782.272 530.722 782.991 529.612 783.621 528.454C784.279 527.191 784.827 525.877 785.258 524.524C784.417 525.581 783.487 526.567 782.476 527.471Z" fill="black"/>
<path d="M797.619 498.186C797.422 499.644 797.086 501.082 796.615 502.479C797.403 501.41 798.105 500.284 798.714 499.109C799.38 497.825 799.93 496.487 800.361 495.111C799.543 496.214 798.625 497.243 797.619 498.186Z" fill="black"/>
<path d="M748.045 461.134C755.798 458.648 764.795 464.73 768.129 474.721C768.6 476.165 768.936 477.648 769.134 479.152C770.855 480.467 772.359 482.035 773.592 483.798C774.055 481.84 774.756 479.944 775.681 478.149C776.033 477.481 776.414 476.843 776.806 476.185C775.666 474.642 774.315 473.26 772.789 472.078C772.592 470.578 772.256 469.098 771.785 467.657C768.431 457.666 759.433 451.575 751.701 454.07C747.282 455.485 744.229 459.385 743.044 464.317C744.403 462.852 746.126 461.756 748.045 461.134Z" fill="black"/>
<path d="M784 469.003C783.911 467.56 783.972 466.111 784.181 464.68C782.224 466.557 780.599 468.738 779.371 471.135C778.763 472.311 778.252 473.533 777.844 474.789C779.511 472.503 781.598 470.541 784 469.003Z" fill="black"/>
<path d="M794.906 447.893C794.817 446.45 794.878 445.002 795.087 443.571C793.128 445.442 791.502 447.621 790.276 450.015C789.67 451.196 789.16 452.421 788.75 453.68C790.412 451.39 792.5 449.427 794.906 447.893Z" fill="black"/>
<path d="M767.337 556.779C767.14 558.244 766.804 559.688 766.333 561.092C767.984 558.856 769.249 556.37 770.079 553.734C769.258 554.826 768.34 555.845 767.337 556.779Z" fill="black"/>
</g>
<path d="M863.491 367.046C867.031 364.768 869.884 361.607 871.756 357.889C876.686 348.36 874.648 337.642 867.207 333.958C859.766 330.273 849.734 335.019 844.803 344.558C842.85 348.245 841.941 352.377 842.172 356.524C838.662 358.834 835.817 361.986 833.907 365.679C831.998 369.372 831.089 373.482 831.266 377.617C827.725 379.891 824.871 383.053 823.002 386.773C822.397 387.939 821.89 389.151 821.485 390.398C824.107 386.684 827.909 383.921 832.301 382.538C832.801 384.052 833.602 385.453 834.66 386.661C835.717 387.869 837.009 388.86 838.46 389.576C839.911 390.293 841.493 390.72 843.115 390.834C844.736 390.948 846.365 390.747 847.906 390.241C849.389 394.512 849.389 399.143 847.906 403.415C848.69 402.357 849.389 401.24 849.995 400.075C851.942 396.396 852.851 392.275 852.626 388.138C856.14 385.832 858.988 382.681 860.898 378.987C862.808 375.293 863.715 371.181 863.531 367.046H863.491Z" fill="#3F3D56"/>
<path d="M983.344 231.834C986.371 230.452 989.297 228.867 992.1 227.089L959.634 203.884L997.794 223.11C1005.51 217.111 1011.9 209.633 1016.56 201.134C1021.22 192.635 1024.06 183.295 1024.91 173.684L960.056 174.333L1025.05 163.703C1024.38 154.083 1021.7 144.7 1017.19 136.129C1012.67 127.558 1006.42 119.98 998.799 113.861C991.182 107.742 982.367 103.211 972.896 100.546C963.424 97.8812 953.495 97.1392 943.719 98.3653C933.944 99.5914 924.527 102.76 916.049 107.676C907.571 112.592 900.209 119.152 894.417 126.953C888.624 134.754 884.523 143.631 882.365 153.039C880.207 162.447 880.039 172.188 881.869 181.662C877.155 183.806 872.69 186.441 868.553 189.521L902.445 235.626L861.755 195.268C853.167 203.518 846.818 213.732 843.281 224.987C839.744 236.241 839.132 248.181 841.5 259.725C829.208 265.338 818.778 274.221 811.401 285.358C804.025 296.496 800 309.439 799.787 322.708C799.573 335.977 803.18 349.038 810.194 360.397C817.208 371.756 827.347 380.956 839.452 386.944C851.558 392.933 865.141 395.469 878.65 394.264C892.159 393.058 905.049 388.159 915.846 380.125C926.644 372.092 934.914 361.25 939.711 348.836C944.508 336.423 945.639 322.94 942.975 309.927C957.684 303.229 969.663 291.886 976.985 277.721C984.307 263.557 986.547 247.395 983.344 231.834Z" fill="#FAB510"/>
<path opacity="0.1" d="M847.899 213.834C840.553 227.992 838.306 244.161 841.522 259.723C829.23 265.336 818.8 274.219 811.424 285.356C804.048 296.494 800.023 309.437 799.809 322.706C799.596 335.975 803.202 349.036 810.216 360.395C817.23 371.754 827.37 380.954 839.475 386.942C851.58 392.931 865.163 395.467 878.672 394.262C892.181 393.056 905.071 388.157 915.869 380.123C926.666 372.09 934.936 361.248 939.734 348.834C944.531 336.421 945.662 322.938 942.997 309.925C957.186 303.481 851.534 206.751 847.899 213.834Z" fill="black"/>
<path d="M929.382 111.411C935.311 111.411 940.117 106.709 940.117 100.909C940.117 95.1087 935.311 90.4067 929.382 90.4067C923.454 90.4067 918.647 95.1087 918.647 100.909C918.647 106.709 923.454 111.411 929.382 111.411Z" fill="#FAB510"/>
<path d="M992.088 118.15C998.017 118.15 1002.82 113.448 1002.82 107.648C1002.82 101.847 998.017 97.1455 992.088 97.1455C986.16 97.1455 981.354 101.847 981.354 107.648C981.354 113.448 986.16 118.15 992.088 118.15Z" fill="#FAB510"/>
<path d="M1016.27 212.518C1022.2 212.518 1027 207.816 1027 202.016C1027 196.216 1022.2 191.514 1016.27 191.514C1010.34 191.514 1005.53 196.216 1005.53 202.016C1005.53 207.816 1010.34 212.518 1016.27 212.518Z" fill="#FAB510"/>
<path d="M983.627 259.645C989.555 259.645 994.362 254.943 994.362 249.143C994.362 243.343 989.555 238.641 983.627 238.641C977.698 238.641 972.892 243.343 972.892 249.143C972.892 254.943 977.698 259.645 983.627 259.645Z" fill="#FAB510"/>
<path d="M939.042 357.534C944.97 357.534 949.777 352.832 949.777 347.032C949.777 341.232 944.97 336.53 939.042 336.53C933.113 336.53 928.307 341.232 928.307 347.032C928.307 352.832 933.113 357.534 939.042 357.534Z" fill="#FAB510"/>
<path opacity="0.1" d="M939.042 357.534C944.97 357.534 949.777 352.832 949.777 347.032C949.777 341.232 944.97 336.53 939.042 336.53C933.113 336.53 928.307 341.232 928.307 347.032C928.307 352.832 933.113 357.534 939.042 357.534Z" fill="black"/>
<path d="M839.9 246.672C845.829 246.672 850.635 241.97 850.635 236.17C850.635 230.37 845.829 225.668 839.9 225.668C833.972 225.668 829.166 230.37 829.166 236.17C829.166 241.97 833.972 246.672 839.9 246.672Z" fill="#FAB510"/>
<path opacity="0.1" d="M839.9 246.672C845.829 246.672 850.635 241.97 850.635 236.17C850.635 230.37 845.829 225.668 839.9 225.668C833.972 225.668 829.166 230.37 829.166 236.17C829.166 241.97 833.972 246.672 839.9 246.672Z" fill="black"/>
<path opacity="0.1" d="M828.463 408.91C821.323 405.383 819.164 395.392 823.331 386.177C823.11 386.55 822.899 386.933 822.698 387.336C817.768 396.866 819.806 407.574 827.247 411.258C834.689 414.942 844.721 410.197 849.641 400.668C849.852 400.275 850.033 399.872 850.214 399.479C845.102 408.232 835.592 412.447 828.463 408.91Z" fill="black"/>
<path opacity="0.1" d="M817.855 429.419C810.725 425.893 808.556 415.901 812.734 406.676C812.513 407.059 812.292 407.443 812.091 407.836C807.16 417.365 809.199 428.083 816.64 431.758C824.081 435.432 834.113 430.706 839.044 421.167C839.245 420.774 839.435 420.381 839.616 419.978C834.495 428.732 824.995 432.946 817.855 429.419Z" fill="black"/>
<path opacity="0.1" d="M807.249 449.917C800.119 446.391 797.95 436.399 802.127 427.184C801.906 427.557 801.685 427.941 801.484 428.343C796.554 437.873 798.602 448.581 806.043 452.265C813.485 455.95 823.507 451.204 828.437 441.675C828.638 441.282 828.829 440.879 829.01 440.486C823.898 449.24 814.388 453.454 807.249 449.917Z" fill="black"/>
<path opacity="0.1" d="M796.687 470.496C789.547 466.969 787.388 456.978 791.556 447.763C791.335 448.136 791.124 448.519 790.913 448.912C785.992 458.442 788.031 469.16 795.472 472.844C802.913 476.528 812.945 471.783 817.866 462.244C818.077 461.851 818.258 461.458 818.438 461.055C813.297 469.759 803.787 473.974 796.687 470.496Z" fill="black"/>
<path opacity="0.1" d="M786.055 490.942C778.915 487.415 776.756 477.424 780.923 468.209C780.702 468.582 780.492 468.965 780.291 469.368C775.36 478.898 777.399 489.606 784.84 493.29C792.281 496.974 802.313 492.229 807.244 482.7C807.444 482.307 807.635 481.904 807.816 481.511C802.715 490.264 793.185 494.479 786.055 490.942Z" fill="black"/>
<path opacity="0.1" d="M775.451 511.45C768.321 507.923 766.152 497.932 770.33 488.717C770.109 489.09 769.888 489.473 769.687 489.866C764.757 499.396 766.795 510.114 774.246 513.798C781.698 517.482 791.669 512.727 796.69 503.198C796.891 502.805 797.082 502.412 797.263 502.009C792.091 510.762 782.631 514.977 775.451 511.45Z" fill="black"/>
<path opacity="0.1" d="M764.836 531.949C757.707 528.423 755.537 518.431 759.715 509.216C759.494 509.599 759.283 509.973 759.072 510.375C754.152 519.905 756.19 530.613 763.631 534.297C771.073 537.982 781.105 533.236 786.025 523.707C786.236 523.314 786.417 522.911 786.598 522.518C781.486 531.272 771.976 535.486 764.836 531.949Z" fill="black"/>
<path opacity="0.1" d="M754.246 552.475C747.106 548.948 744.947 538.957 749.114 529.742C748.893 530.115 748.682 530.498 748.482 530.891C743.551 540.421 745.59 551.139 753.031 554.823C760.472 558.507 770.504 553.762 775.435 544.223C775.635 543.83 775.816 543.437 775.997 543.034C770.885 551.787 761.376 555.963 754.246 552.475Z" fill="black"/>
<path opacity="0.1" d="M747.284 565.945C740.154 562.408 737.985 552.426 742.162 543.201C741.942 543.585 741.721 543.968 741.52 544.361C736.589 553.89 738.628 564.608 746.069 568.283C753.51 571.957 763.542 567.232 768.473 557.692C768.673 557.299 768.864 556.906 769.045 556.503C763.923 565.257 754.414 569.471 747.284 565.945Z" fill="black"/>
<path d="M938.877 474.669C939.983 471.565 940.658 468.33 940.885 465.051C941.623 465.049 942.352 464.899 943.028 464.609C943.703 464.319 944.31 463.896 944.811 463.366C945.311 462.836 945.695 462.211 945.938 461.53C946.18 460.848 946.276 460.125 946.22 459.406C946.164 458.686 945.957 457.986 945.612 457.348C945.266 456.711 944.79 456.15 944.213 455.7C943.636 455.251 942.97 454.923 942.258 454.736C941.545 454.55 940.801 454.51 940.072 454.617C938.878 449.3 936.489 444.31 933.077 440.009C929.666 435.707 925.318 432.204 920.349 429.752C920.991 428.509 921.102 427.068 920.658 425.745C920.213 424.422 919.25 423.326 917.979 422.698C916.709 422.07 915.236 421.962 913.883 422.397C912.531 422.832 911.411 423.774 910.769 425.017C910.537 425.459 910.374 425.932 910.287 426.422C904.395 425.348 898.326 425.666 892.585 427.349C886.844 429.032 881.596 432.032 877.279 436.099C874.019 435.583 870.703 435.487 867.418 435.814L863.069 455.177L862.808 436.511C857.818 437.582 853.102 439.636 848.951 442.55C844.799 445.463 841.299 449.174 838.663 453.456C836.027 457.738 834.312 462.501 833.622 467.454C832.931 472.406 833.28 477.444 834.648 482.26C836.015 487.076 838.372 491.569 841.575 495.464C844.777 499.358 848.758 502.573 853.273 504.912C857.789 507.25 862.744 508.663 867.837 509.065C872.93 509.466 878.053 508.847 882.892 507.246C883.41 508.16 884.198 508.899 885.152 509.368C886.135 509.857 887.249 510.037 888.34 509.884C889.432 509.731 890.449 509.252 891.253 508.513C892.057 507.774 892.608 506.811 892.832 505.754C893.055 504.698 892.94 503.599 892.503 502.609C894.216 501.458 895.828 500.17 897.323 498.758C905.163 500.005 913.204 498.791 920.296 495.292C927.387 491.792 933.164 486.186 936.798 479.276L916.563 475.946L938.877 474.669Z" fill="#FAB510"/>
<g opacity="0.1">
<path d="M907.607 484.072C900.136 474.424 895.557 462.999 890.285 452.035C888.168 447.535 885.798 443.153 883.185 438.909L879.228 434.4C878.565 434.95 877.903 435.52 877.22 436.119C873.96 435.603 870.644 435.508 867.359 435.835L863.01 455.198L862.749 436.532C857.759 437.602 853.043 439.657 848.892 442.57C844.74 445.484 841.24 449.195 838.604 453.477C835.968 457.759 834.253 462.522 833.562 467.474C832.872 472.427 833.221 477.465 834.589 482.281C835.956 487.097 838.313 491.59 841.515 495.484C844.718 499.379 848.699 502.594 853.214 504.932C857.73 507.271 862.685 508.684 867.778 509.086C872.871 509.487 877.993 508.868 882.833 507.267C883.351 508.18 884.138 508.92 885.093 509.389C886.076 509.877 887.19 510.058 888.281 509.905C889.373 509.752 890.39 509.273 891.194 508.534C891.998 507.795 892.549 506.832 892.773 505.775C892.996 504.718 892.881 503.62 892.444 502.63C894.157 501.479 895.769 500.191 897.264 498.779C904.939 499.994 912.811 498.855 919.798 495.517C915.134 492.365 911.018 488.501 907.607 484.072Z" fill="black"/>
</g>
<path d="M775.306 442.617C775.72 441.816 775.917 440.924 775.878 440.028C775.839 439.131 775.566 438.259 775.085 437.495C774.603 436.731 773.929 436.101 773.127 435.665C772.326 435.228 771.423 435.001 770.506 435.003C768.984 427.108 764.856 419.919 758.756 414.539C759.74 410.788 760.112 406.909 759.861 403.045L740.128 399.754L759.289 398.575C758.945 396.815 758.471 395.081 757.873 393.387C758.619 392.885 759.226 392.21 759.64 391.423C760.123 390.484 760.308 389.424 760.169 388.382C760.031 387.339 759.576 386.361 758.863 385.574C758.151 384.787 757.213 384.227 756.172 383.967C755.131 383.706 754.034 383.757 753.022 384.113C747.948 377.098 740.522 372.044 732.034 369.829C723.547 367.614 714.534 368.378 706.562 371.989C698.591 375.599 692.164 381.828 688.399 389.592C684.633 397.356 683.768 406.166 685.952 414.49C684.79 414.97 683.842 415.841 683.28 416.946C682.788 417.897 682.603 418.973 682.751 420.03C682.9 421.086 683.373 422.074 684.11 422.86C684.846 423.647 685.81 424.195 686.873 424.432C687.935 424.669 689.047 424.583 690.059 424.187C691.985 427.351 694.385 430.216 697.179 432.685C695.145 440.444 695.758 448.641 698.926 456.027L725.387 449.307L701.788 461.45C705.961 467.936 712.101 472.985 719.351 475.89C726.6 478.794 734.597 479.409 742.221 477.649C749.846 475.889 756.718 471.842 761.875 466.073C767.033 460.304 770.219 453.103 770.988 445.476C771.897 445.399 772.771 445.096 773.527 444.595C774.282 444.095 774.895 443.414 775.306 442.617Z" fill="#FAB510"/>
<path opacity="0.1" d="M775.302 442.623C775.716 441.822 775.913 440.931 775.874 440.034C775.835 439.137 775.562 438.265 775.08 437.501C774.599 436.737 773.925 436.107 773.123 435.671C772.322 435.234 771.419 435.007 770.501 435.009C768.979 427.114 764.852 419.925 758.752 414.545C758.913 413.926 759.053 413.317 759.174 412.698C758.473 413.195 757.824 413.758 757.236 414.378C753.671 418.2 751.843 423.338 748.319 427.199C744.161 431.757 737.935 434.135 731.719 434.773C725.503 435.412 719.247 434.479 713.111 433.31C708.03 432.327 702.878 431.187 697.727 431.669C697.225 431.669 696.722 431.777 696.261 431.856C696.562 432.14 696.863 432.425 697.174 432.7C695.14 440.46 695.754 448.656 698.922 456.043L725.382 449.313L701.784 461.456C705.956 467.943 712.097 472.991 719.346 475.896C726.596 478.8 734.592 479.415 742.217 477.655C749.842 475.895 756.713 471.848 761.871 466.079C767.029 460.31 770.215 453.109 770.983 445.482C771.893 445.405 772.767 445.102 773.522 444.602C774.278 444.101 774.891 443.42 775.302 442.623Z" fill="black"/>
</g>
<g opacity="0.1">
<path d="M89.8627 502.268C91.1481 498.446 96.3599 496.687 101.501 498.338C102.241 498.575 102.957 498.878 103.64 499.242C103.972 499.153 104.313 499.075 104.645 499.016C104.362 497.919 104.254 496.785 104.323 495.656C102.558 494.488 101.127 492.899 100.166 491.039C99.2048 489.178 98.745 487.109 98.8302 485.026C97.0498 483.88 95.6146 482.289 94.6728 480.418C93.6914 478.565 93.2306 476.49 93.3372 474.406C91.558 473.254 90.1234 471.661 89.1798 469.789C86.7095 464.994 87.7137 459.601 91.4794 457.734C95.2452 455.868 100.286 458.275 102.767 463.069C103.746 464.926 104.204 467.004 104.092 469.091C105.862 470.252 107.297 471.838 108.259 473.698C109.221 475.558 109.677 477.629 109.585 479.711C111.354 480.875 112.788 482.463 113.75 484.325C114.712 486.186 115.169 488.257 115.078 490.341C116.848 491.502 118.283 493.088 119.245 494.948C120.207 496.808 120.663 498.879 120.571 500.961C122.354 502.112 123.792 503.705 124.739 505.578C125.19 506.485 125.527 507.441 125.743 508.427C126.362 507.537 127.117 506.745 127.982 506.079C128.085 505.322 128.26 504.575 128.504 503.849C130.202 498.819 134.731 495.754 138.637 496.972C142.543 498.191 144.331 503.329 142.654 508.359C141.961 510.519 140.629 512.43 138.828 513.85C138.723 514.605 138.549 515.348 138.306 516.071C137.481 518.737 135.645 520.994 133.174 522.378C133.368 523.021 133.509 523.678 133.596 524.343C134.633 525.316 135.492 526.456 136.136 527.712C136.793 528.966 137.222 530.323 137.402 531.721C138.442 532.693 139.305 533.833 139.952 535.09C140.608 536.345 141.036 537.701 141.218 539.099C142.261 540.073 143.124 541.216 143.768 542.478C146.249 547.273 145.224 552.676 141.479 554.523C137.733 556.37 132.672 553.992 130.192 549.188C129.538 547.933 129.109 546.577 128.926 545.18C126.834 543.216 125.488 540.614 125.11 537.802C123.018 535.838 121.672 533.236 121.294 530.424C120.254 529.451 119.392 528.311 118.744 527.054C118.094 525.797 117.666 524.442 117.478 523.046C116.442 522.072 115.582 520.933 114.938 519.676C114.281 518.422 113.852 517.066 113.672 515.668C113.026 515.079 112.45 514.419 111.955 513.703C109.889 514.116 107.748 513.988 105.749 513.33C105.007 513.087 104.288 512.782 103.6 512.416C101.367 512.996 99.0075 512.914 96.8218 512.18C91.7305 510.52 88.5873 506.089 89.8627 502.268Z" fill="#3F3D56"/>
<g opacity="0.1">
<path d="M98.9375 487.205C99.4699 487.718 100.056 488.176 100.685 488.57C100.6 489.981 100.791 491.395 101.247 492.736C100.844 492.2 100.488 491.631 100.183 491.036C99.5546 489.835 99.1339 488.54 98.9375 487.205Z" fill="black"/>
<path d="M93.4438 476.593C93.979 477.1 94.5643 477.554 95.1912 477.948C95.1068 479.362 95.2976 480.779 95.7535 482.124C94.5371 480.49 93.7445 478.592 93.4438 476.593Z" fill="black"/>
<path d="M105.925 472.636C105.973 471.908 105.946 471.178 105.845 470.455C106.826 471.403 107.644 472.502 108.265 473.707C108.568 474.302 108.823 474.92 109.028 475.554C108.191 474.398 107.138 473.408 105.925 472.636Z" fill="black"/>
<path d="M140.77 536.949C140.331 536.347 139.834 535.788 139.284 535.279C139.192 534.614 139.045 533.956 138.842 533.314C139.278 533.891 139.664 534.503 139.997 535.142C140.302 535.724 140.56 536.328 140.77 536.949Z" fill="black"/>
<path d="M136.924 529.565C136.485 528.963 135.987 528.403 135.437 527.895C135.355 527.229 135.214 526.572 135.016 525.93C135.843 527.026 136.481 528.247 136.904 529.545L136.924 529.565Z" fill="black"/>
<path d="M104.436 497.858C104.963 498.367 105.546 498.819 106.173 499.204C106.098 500.333 106.207 501.468 106.495 502.564C106.156 502.622 105.821 502.698 105.49 502.79C104.802 502.427 104.083 502.125 103.341 501.886C98.1998 500.235 92.988 501.994 91.7126 505.816C91.393 506.767 91.3341 507.783 91.5419 508.763C90.7157 507.913 90.1281 506.868 89.8361 505.73C89.544 504.593 89.5574 503.4 89.8749 502.269C91.1603 498.447 96.3721 496.689 101.514 498.339C102.253 498.577 102.969 498.879 103.653 499.243C103.984 499.155 104.325 499.076 104.657 499.017C104.56 498.635 104.486 498.248 104.436 497.858Z" fill="black"/>
<path d="M142.66 540.655C143.098 541.233 143.484 541.848 143.814 542.492C144.121 543.087 144.38 543.704 144.588 544.339C144.149 543.733 143.651 543.171 143.102 542.659C143.012 541.98 142.864 541.309 142.66 540.655Z" fill="black"/>
<path d="M111.414 483.275C111.462 482.547 111.435 481.816 111.334 481.094C112.318 482.04 113.136 483.139 113.754 484.346C114.057 484.937 114.312 485.552 114.517 486.183C113.68 485.03 112.627 484.043 111.414 483.275Z" fill="black"/>
<path d="M119.362 526.606C119.456 527.34 119.62 528.064 119.854 528.767C119.017 527.645 118.379 526.393 117.966 525.063C118.383 525.617 118.85 526.134 119.362 526.606Z" fill="black"/>
<path d="M126.982 541.353C127.083 542.087 127.251 542.81 127.484 543.514C127.081 542.978 126.724 542.41 126.42 541.815C126.089 541.183 125.814 540.526 125.596 539.85C126.017 540.386 126.48 540.889 126.982 541.353Z" fill="black"/>
<path d="M123.175 533.986C123.269 534.72 123.433 535.444 123.667 536.148C123.267 535.609 122.911 535.041 122.602 534.448C122.271 533.817 121.995 533.16 121.779 532.483C122.198 533.023 122.665 533.526 123.175 533.986Z" fill="black"/>
<path d="M115.544 519.217C115.637 519.955 115.802 520.682 116.036 521.388C115.655 520.849 115.319 520.281 115.032 519.689C114.695 519.059 114.416 518.402 114.198 517.724C114.599 518.261 115.05 518.76 115.544 519.217Z" fill="black"/>
<path d="M140.509 500.561C136.603 499.304 132.074 502.369 130.387 507.438C130.143 508.164 129.968 508.911 129.865 509.668C128.996 510.329 128.237 511.118 127.615 512.006C127.382 511.019 127.028 510.062 126.561 509.157C126.39 508.823 126.199 508.499 125.999 508.175C126.569 507.401 127.244 506.707 128.007 506.112C128.11 505.354 128.285 504.608 128.529 503.882C130.226 498.852 134.755 495.787 138.662 497.005C139.782 497.425 140.772 498.122 141.535 499.028C142.299 499.933 142.81 501.016 143.02 502.172C142.337 501.434 141.473 500.88 140.509 500.561Z" fill="black"/>
<path d="M122.402 504.517C122.449 503.789 122.422 503.058 122.321 502.336C123.305 503.282 124.123 504.381 124.741 505.588C125.045 506.183 125.3 506.8 125.505 507.434C124.67 506.277 123.617 505.286 122.402 504.517Z" fill="black"/>
<path d="M116.908 493.887C116.956 493.159 116.929 492.429 116.828 491.706C117.807 492.656 118.624 493.754 119.248 494.958C119.551 495.553 119.806 496.171 120.011 496.805C119.174 495.649 118.121 494.659 116.908 493.887Z" fill="black"/>
<path d="M130.799 548.737C130.896 549.475 131.064 550.202 131.301 550.908C130.9 550.367 130.544 549.796 130.237 549.199C129.907 548.568 129.631 547.91 129.414 547.234C129.834 547.77 130.298 548.273 130.799 548.737Z" fill="black"/>
</g>
<path d="M82.3708 453.151C80.5904 452.005 79.1552 450.414 78.2134 448.544C75.733 443.74 76.7573 438.346 80.503 436.489C84.2487 434.633 89.3099 437.02 91.7903 441.824C92.7713 443.677 93.2289 445.753 93.1158 447.837C94.8849 449 96.319 450.589 97.2808 452.45C98.2426 454.311 98.6999 456.383 98.6088 458.466C100.39 459.614 101.828 461.204 102.776 463.074C103.078 463.663 103.333 464.274 103.539 464.901C102.209 463.044 100.294 461.664 98.0866 460.972C97.8407 461.739 97.441 462.451 96.9106 463.065C96.3803 463.68 95.7301 464.185 94.9981 464.551C94.266 464.917 93.4667 465.136 92.647 465.196C91.8272 465.256 91.0034 465.156 90.2237 464.901C89.4791 467.052 89.4791 469.382 90.2237 471.533C89.8464 470.998 89.5107 470.437 89.2195 469.853C88.2381 468 87.7772 465.925 87.8839 463.84C86.1169 462.675 84.6844 461.086 83.7228 459.225C82.7613 457.364 82.3028 455.294 82.3909 453.21L82.3708 453.151Z" fill="#3F3D56"/>
<path d="M21.9916 385.034C20.4683 384.338 18.9954 383.54 17.5831 382.647L33.9316 370.956L14.7111 380.633C10.8249 377.61 7.61021 373.843 5.26364 369.562C2.91708 365.282 1.48802 360.578 1.06395 355.738L33.7408 356.072L0.993652 350.708C1.27562 345.821 2.58332 341.043 4.8353 336.672C7.08727 332.3 10.2353 328.429 14.0831 325.3C17.931 322.171 22.3963 319.851 27.2009 318.484C32.0054 317.117 37.0463 316.732 42.0093 317.354C46.9724 317.976 51.7514 319.592 56.0485 322.099C60.3456 324.607 64.0688 327.954 66.9861 331.931C69.9033 335.908 71.9522 340.43 73.0051 345.216C74.0579 350.001 74.0921 354.948 73.1056 359.747C75.4776 360.82 77.7263 362.138 79.8137 363.676L62.7422 386.901L83.238 366.584C87.563 370.74 90.7607 375.886 92.5422 381.555C94.3236 387.224 94.6324 393.238 93.4407 399.053C99.6408 401.879 104.903 406.354 108.626 411.967C112.348 417.581 114.381 424.106 114.491 430.796C114.602 437.487 112.786 444.073 109.25 449.801C105.715 455.529 100.603 460.168 94.4993 463.187C88.3957 466.207 81.5467 467.485 74.7355 466.876C67.9242 466.267 61.4257 463.795 55.9831 459.742C50.5404 455.69 46.3733 450.221 43.9583 443.96C41.5433 437.7 40.9779 430.901 42.3267 424.341C34.9267 420.967 28.8994 415.259 25.2119 408.133C21.5244 401.007 20.3903 392.876 21.9916 385.044V385.034Z" fill="#FAB510"/>
<path opacity="0.1" d="M90.2241 375.972C93.9277 383.103 95.0601 391.249 93.4376 399.089C99.6376 401.914 104.9 406.389 108.623 412.003C112.345 417.616 114.378 424.141 114.488 430.832C114.599 437.522 112.782 444.108 109.247 449.836C105.712 455.564 100.6 460.203 94.4962 463.223C88.3926 466.242 81.5436 467.521 74.7323 466.911C67.9211 466.302 61.4226 463.83 55.9799 459.777C50.5373 455.725 46.3702 450.256 43.9552 443.996C41.5402 437.735 40.9748 430.936 42.3236 424.376C35.1636 421.125 88.3864 372.406 90.2241 375.972Z" fill="black"/>
<path d="M49.1758 324.375C52.1652 324.375 54.5885 322.004 54.5885 319.079C54.5885 316.155 52.1652 313.784 49.1758 313.784C46.1865 313.784 43.7632 316.155 43.7632 319.079C43.7632 322.004 46.1865 324.375 49.1758 324.375Z" fill="#FAB510"/>
<path d="M17.5836 327.771C20.5729 327.771 22.9962 325.4 22.9962 322.475C22.9962 319.551 20.5729 317.18 17.5836 317.18C14.5942 317.18 12.1709 319.551 12.1709 322.475C12.1709 325.4 14.5942 327.771 17.5836 327.771Z" fill="#FAB510"/>
<path d="M5.41266 375.313C8.40199 375.313 10.8253 372.942 10.8253 370.018C10.8253 367.093 8.40199 364.723 5.41266 364.723C2.42333 364.723 0 367.093 0 370.018C0 372.942 2.42333 375.313 5.41266 375.313Z" fill="#FAB510"/>
<path d="M21.8526 399.058C24.8419 399.058 27.2653 396.687 27.2653 393.763C27.2653 390.838 24.8419 388.467 21.8526 388.467C18.8633 388.467 16.4399 390.838 16.4399 393.763C16.4399 396.687 18.8633 399.058 21.8526 399.058Z" fill="#FAB510"/>
<path d="M44.3101 448.36C47.2995 448.36 49.7228 445.99 49.7228 443.065C49.7228 440.141 47.2995 437.77 44.3101 437.77C41.3208 437.77 38.8975 440.141 38.8975 443.065C38.8975 445.99 41.3208 448.36 44.3101 448.36Z" fill="#FAB510"/>
<path opacity="0.1" d="M44.3101 448.36C47.2995 448.36 49.7228 445.99 49.7228 443.065C49.7228 440.141 47.2995 437.77 44.3101 437.77C41.3208 437.77 38.8975 440.141 38.8975 443.065C38.8975 445.99 41.3208 448.36 44.3101 448.36Z" fill="black"/>
<path d="M94.2442 392.514C97.2335 392.514 99.6569 390.143 99.6569 387.218C99.6569 384.294 97.2335 381.923 94.2442 381.923C91.2549 381.923 88.8315 384.294 88.8315 387.218C88.8315 390.143 91.2549 392.514 94.2442 392.514Z" fill="#FAB510"/>
<path opacity="0.1" d="M94.2442 392.514C97.2335 392.514 99.6569 390.143 99.6569 387.218C99.6569 384.294 97.2335 381.923 94.2442 381.923C91.2549 381.923 88.8315 384.294 88.8315 387.218C88.8315 390.143 91.2549 392.514 94.2442 392.514Z" fill="black"/>
<path opacity="0.1" d="M100.019 474.252C103.614 472.473 104.698 467.444 102.599 462.797C102.71 462.993 102.82 463.18 102.921 463.376C105.401 468.18 104.377 473.574 100.621 475.431C96.8654 477.287 91.8243 474.9 89.3439 470.096C89.2435 469.9 89.1431 469.703 89.0527 469.497C91.6335 473.908 96.4236 476.03 100.019 474.252Z" fill="black"/>
<path opacity="0.1" d="M105.353 484.581C108.948 482.803 110.043 477.763 107.944 473.126C108.055 473.313 108.165 473.509 108.266 473.706C110.746 478.51 109.722 483.903 105.966 485.76C102.21 487.617 97.1691 485.229 94.6887 480.425C94.5782 480.229 94.4878 480.023 94.3975 479.826C96.9783 484.257 101.778 486.359 105.353 484.581Z" fill="black"/>
<path opacity="0.1" d="M110.698 494.901C114.293 493.123 115.387 488.093 113.278 483.446C113.399 483.643 113.499 483.829 113.61 484.036C116.09 488.83 115.056 494.233 111.31 496.08C107.564 497.927 102.513 495.55 100.033 490.746C99.9224 490.549 99.8321 490.353 99.7417 490.146C102.312 494.558 107.103 496.68 110.698 494.901Z" fill="black"/>
<path opacity="0.1" d="M116.029 505.239C119.624 503.461 120.718 498.431 118.609 493.784C118.72 493.971 118.83 494.167 118.931 494.364C121.421 499.168 120.387 504.561 116.641 506.418C112.896 508.275 107.834 505.888 105.354 501.084C105.254 500.887 105.163 500.681 105.073 500.484C107.644 504.886 112.434 507.017 116.029 505.239Z" fill="black"/>
<path opacity="0.1" d="M121.374 515.559C124.969 513.781 126.054 508.751 123.955 504.114C124.065 504.3 124.176 504.497 124.276 504.693C126.757 509.497 125.732 514.891 121.987 516.748C118.241 518.604 113.18 516.207 110.699 511.413C110.599 511.207 110.509 511.01 110.408 510.814C112.989 515.215 117.779 517.337 121.374 515.559Z" fill="black"/>
<path opacity="0.1" d="M126.719 525.898C130.314 524.12 131.398 519.09 129.3 514.443C129.41 514.639 129.521 514.826 129.621 515.023C132.101 519.827 131.077 525.22 127.331 527.077C123.586 528.934 118.525 526.546 116.044 521.742C115.944 521.546 115.843 521.349 115.753 521.143C118.334 525.515 123.124 527.676 126.719 525.898Z" fill="black"/>
<path opacity="0.1" d="M132.063 536.236C135.648 534.458 136.743 529.418 134.644 524.781C134.754 524.967 134.865 525.164 134.965 525.36C137.446 530.164 136.421 535.558 132.666 537.415C128.91 539.272 123.869 536.874 121.388 532.08C121.288 531.874 121.188 531.677 121.097 531.481C123.678 535.882 128.468 538.014 132.063 536.236Z" fill="black"/>
<path opacity="0.1" d="M137.397 546.565C140.992 544.787 142.087 539.757 139.978 535.11C140.099 535.306 140.199 535.493 140.309 535.699C142.79 540.494 141.756 545.897 138.01 547.744C134.264 549.591 129.213 547.213 126.733 542.409C126.622 542.213 126.532 542.016 126.441 541.81C129.022 546.221 133.802 548.343 137.397 546.565Z" fill="black"/>
<path opacity="0.1" d="M140.94 553.348C144.535 551.57 145.62 546.54 143.521 541.893C143.631 542.089 143.742 542.276 143.842 542.482C146.323 547.277 145.298 552.68 141.553 554.527C137.807 556.374 132.746 553.996 130.265 549.192C130.165 548.996 130.064 548.799 129.974 548.593C132.525 553.024 137.315 555.126 140.94 553.348Z" fill="black"/>
<path d="M44.4006 507.365C43.8428 505.803 43.505 504.174 43.3964 502.522C43.025 502.521 42.658 502.445 42.3181 502.298C41.9782 502.152 41.6728 501.939 41.4209 501.672C41.1691 501.405 40.9762 501.09 40.8543 500.747C40.7324 500.404 40.6841 500.04 40.7125 499.677C40.7409 499.315 40.8453 498.963 41.0192 498.642C41.1931 498.321 41.4328 498.038 41.7233 497.812C42.0138 497.586 42.3488 497.42 42.7076 497.326C43.0663 497.233 43.4409 497.212 43.8081 497.266C44.4106 494.588 45.6144 492.075 47.3321 489.909C49.0498 487.743 51.2385 485.977 53.7397 484.74C53.4161 484.114 53.3602 483.387 53.5843 482.72C53.8084 482.053 54.2942 481.5 54.9347 481.184C55.5752 480.867 56.3181 480.813 56.9998 481.032C57.6815 481.251 58.2463 481.726 58.5699 482.353C58.6875 482.575 58.7688 482.814 58.8109 483.06C61.7824 482.527 64.841 482.694 67.7332 483.548C70.6253 484.402 73.2675 485.919 75.4405 487.972C77.1004 487.706 78.7892 487.66 80.4616 487.835L82.6507 497.581L82.7009 488.179C85.1908 488.742 87.5384 489.792 89.6021 491.267C91.6658 492.741 93.4029 494.61 94.7088 496.759C96.0147 498.908 96.8622 501.293 97.2004 503.771C97.5385 506.249 97.3602 508.769 96.6763 511.178C95.9924 513.587 94.8169 515.835 93.2208 517.788C91.6247 519.74 89.641 521.356 87.3893 522.539C85.1376 523.721 82.6645 524.445 80.1191 524.667C77.5737 524.889 75.0086 524.605 72.5786 523.831C72.3142 524.288 71.92 524.66 71.4438 524.902C70.9475 525.147 70.3861 525.237 69.8358 525.159C69.2855 525.082 68.7728 524.841 68.3673 524.469C67.9618 524.097 67.683 523.611 67.5686 523.079C67.4543 522.547 67.51 521.993 67.7282 521.493C66.8672 520.905 66.0577 520.247 65.3081 519.528C61.3581 520.154 57.307 519.541 53.7352 517.776C50.1634 516.011 47.2543 513.185 45.4249 509.704L55.6175 508.024L44.4006 507.365Z" fill="#FAB510"/>
<g opacity="0.1">
<path d="M60.1461 512.112C63.9119 507.2 66.2216 501.502 68.8727 495.981C69.9343 493.709 71.1279 491.498 72.4476 489.359L74.456 487.09C74.7975 487.375 75.1289 487.66 75.4603 487.954C77.1201 487.689 78.8089 487.642 80.4813 487.817L82.6705 497.562L82.7006 488.19C85.1905 488.753 87.538 489.804 89.6017 491.278C91.6654 492.753 93.4026 494.621 94.7084 496.77C96.0143 498.919 96.8619 501.305 97.2 503.783C97.5382 506.261 97.3599 508.78 96.6759 511.189C95.992 513.598 94.8166 515.847 93.2205 517.799C91.6244 519.752 89.6407 521.368 87.389 522.55C85.1373 523.732 82.6642 524.457 80.1187 524.679C77.5733 524.901 75.0082 524.616 72.5782 523.842C72.3139 524.299 71.9197 524.671 71.4434 524.913C70.9471 525.158 70.3858 525.248 69.8354 525.171C69.2851 525.093 68.7725 524.852 68.3669 524.48C67.9614 524.108 67.6826 523.623 67.5683 523.091C67.454 522.558 67.5097 522.004 67.7279 521.504C66.8668 520.916 66.0573 520.259 65.3077 519.539C61.4395 520.146 57.4741 519.573 53.9502 517.899C56.3204 516.309 58.4126 514.355 60.1461 512.112Z" fill="black"/>
</g>
<path d="M126.797 491.226C126.636 490.917 126.539 490.579 126.513 490.233C126.486 489.887 126.529 489.539 126.64 489.21C126.751 488.88 126.928 488.575 127.16 488.312C127.392 488.05 127.674 487.835 127.992 487.679C128.371 487.49 128.791 487.392 129.217 487.395C129.983 483.416 132.06 479.793 135.131 477.079C134.635 475.191 134.448 473.238 134.579 471.293L144.511 469.662L134.86 469.062C135.035 468.175 135.277 467.302 135.583 466.449C135.204 466.202 134.896 465.864 134.69 465.467C134.448 464.994 134.357 464.46 134.427 463.936C134.498 463.412 134.727 462.92 135.085 462.524C135.444 462.128 135.915 461.846 136.439 461.713C136.962 461.581 137.514 461.606 138.024 461.783C139.797 459.314 142.167 457.313 144.922 455.957C148.168 454.346 151.819 453.685 155.439 454.052C159.059 454.42 162.493 455.802 165.331 458.031C168.168 460.261 170.288 463.244 171.436 466.622C172.585 470 172.713 473.631 171.805 477.079C172.277 477.277 172.682 477.602 172.971 478.017C173.261 478.432 173.424 478.919 173.441 479.421C173.458 479.923 173.328 480.42 173.066 480.852C172.805 481.285 172.423 481.636 171.966 481.863C171.622 482.034 171.246 482.13 170.862 482.147C170.477 482.164 170.094 482.101 169.736 481.962C168.767 483.551 167.559 484.989 166.151 486.225C167.181 490.143 166.874 494.283 165.278 498.015L151.992 494.596L163.872 500.716C162.088 503.501 159.58 505.771 156.604 507.294C153.628 508.818 150.291 509.54 146.936 509.386C143.581 509.232 140.328 508.208 137.51 506.418C134.693 504.629 132.413 502.139 130.904 499.203C129.853 497.16 129.193 494.946 128.956 492.67C128.5 492.63 128.062 492.476 127.684 492.223C127.306 491.97 127 491.627 126.797 491.226Z" fill="#FAB510"/>
<path opacity="0.1" d="M126.797 491.221C126.636 490.911 126.539 490.574 126.513 490.228C126.486 489.882 126.529 489.534 126.64 489.204C126.751 488.875 126.928 488.57 127.16 488.307C127.392 488.045 127.674 487.83 127.992 487.674C128.371 487.484 128.791 487.387 129.217 487.389C129.983 483.411 132.06 479.787 135.131 477.074C135.051 476.769 134.981 476.455 134.921 476.15C135.281 476.402 135.617 476.684 135.925 476.995C137.722 478.96 138.646 481.505 140.414 483.45C142.628 485.685 145.605 487.045 148.779 487.271C151.922 487.483 155.08 487.235 158.148 486.535C160.678 485.897 163.289 485.616 165.9 485.7L166.643 485.798L166.181 486.22C167.211 490.138 166.904 494.278 165.308 498.009L151.992 494.591L163.872 500.711C162.088 503.495 159.58 505.766 156.604 507.289C153.628 508.813 150.291 509.534 146.936 509.38C143.581 509.226 140.328 508.202 137.51 506.413C134.693 504.624 132.413 502.134 130.904 499.198C129.853 497.155 129.193 494.941 128.956 492.665C128.5 492.625 128.062 492.471 127.684 492.218C127.306 491.965 127 491.622 126.797 491.221Z" fill="black"/>
</g>
<path opacity="0.1" d="M347.803 50.9993C343.833 50.262 339.728 50.6999 336.013 52.2568C333.785 53.2282 331.373 53.7302 328.934 53.7302C326.494 53.7302 324.082 53.2282 321.854 52.2568C319.221 51.1275 316.368 50.5715 313.493 50.6275C310.618 50.6835 307.79 51.35 305.204 52.581C303.728 53.344 302.084 53.7452 300.414 53.7501C293.666 53.7501 288.053 47.0991 286.888 38.326C288.233 37.3611 289.378 36.1541 290.262 34.7697C294.218 28.5312 300.304 24.5229 307.223 24.5229C314.142 24.5229 320.167 28.4527 324.124 34.6518C325.306 36.5134 326.957 38.0462 328.92 39.1026C330.883 40.159 333.09 40.7036 335.331 40.6839H335.511C340.834 40.6544 345.483 44.869 347.803 50.9993Z" fill="#FAB510"/>
<path opacity="0.1" d="M368.308 23.4898L357.402 30.2587L364.02 18.4696C362.143 17.0066 359.822 16.1977 357.422 16.1707H357.251C356.495 16.1798 355.739 16.1239 354.992 16.0037L351.287 18.3026L352.873 15.483C350.262 14.594 348.001 12.9279 346.406 10.7183L339.768 14.7757L343.946 7.33872C340.08 2.79009 334.858 0 329.124 0C322.245 0 316.069 4.00829 312.153 10.2467C310.981 12.1101 309.326 13.6369 307.356 14.6722C305.386 15.7075 303.171 16.2143 300.936 16.1413H300.604C293.013 16.1413 286.847 24.5606 286.847 34.9645C286.847 45.3684 293.013 53.778 300.604 53.778C302.274 53.773 303.918 53.3719 305.394 52.6089C307.98 51.3769 310.808 50.7106 313.684 50.6563C316.559 50.602 319.412 51.161 322.044 52.2945C324.273 53.2629 326.685 53.7633 329.124 53.7633C331.563 53.7633 333.974 53.2629 336.203 52.2945C338.815 51.1851 341.641 50.639 344.488 50.6932C347.335 50.7474 350.137 51.4008 352.702 52.6089C354.168 53.3515 355.792 53.7421 357.442 53.7485C365.044 53.7485 371.2 45.3291 371.2 34.9351C371.227 30.9437 370.232 27.0092 368.308 23.4898Z" fill="#FAB510"/>
<path opacity="0.1" d="M120.853 187.107C115.182 186.058 109.321 186.68 104.012 188.895C100.827 190.277 97.3794 190.986 93.8948 190.978C90.4102 190.969 86.9664 190.243 83.7878 188.846C80.0267 187.233 75.9521 186.439 71.8461 186.518C67.7401 186.598 63.701 187.55 60.0082 189.308C57.8963 190.396 55.5467 190.969 53.1596 190.978C43.5192 190.978 35.4956 181.478 33.8286 168.942C35.755 167.569 37.3918 165.844 38.6488 163.863C44.3025 154.952 53.0591 149.225 62.8903 149.225C72.7215 149.225 81.3677 154.884 86.9912 163.696C88.6813 166.367 91.0494 168.564 93.865 170.074C96.6807 171.584 99.8479 172.355 103.058 172.312H103.31C110.921 172.302 117.569 178.324 120.853 187.107Z" fill="#FAB510"/>
<path opacity="0.1" d="M150.181 147.763L134.596 157.43L144.056 140.601C141.375 138.508 138.056 137.35 134.626 137.31H134.375C133.292 137.326 132.21 137.247 131.142 137.074L125.88 140.405L128.149 136.377C124.404 135.097 121.17 132.689 118.911 129.5L109.451 135.394L115.406 124.686C109.873 118.192 102.421 114.213 94.2272 114.213C84.396 114.213 75.6393 119.931 69.9857 128.842C68.3112 131.516 65.9418 133.707 63.1193 135.193C60.2967 136.679 57.1219 137.406 53.9184 137.3H53.3862C42.5307 137.3 33.7339 149.335 33.7339 164.189C33.7339 179.044 42.5307 191.078 53.3862 191.078C55.7748 191.072 58.1258 190.495 60.2348 189.398C63.9283 187.642 67.9679 186.692 72.0738 186.614C76.1798 186.536 80.254 187.332 84.0144 188.947C87.193 190.344 90.6368 191.07 94.1214 191.078C97.606 191.087 101.053 190.377 104.239 188.996C107.972 187.411 112.009 186.63 116.078 186.706C120.146 186.782 124.15 187.714 127.818 189.438C129.907 190.507 132.228 191.07 134.586 191.078C145.442 191.078 154.238 179.034 154.238 164.189C154.314 158.468 152.919 152.82 150.181 147.763Z" fill="#FAB510"/>
<path opacity="0.1" d="M751.122 89.3141C755.092 88.5774 759.197 89.0152 762.911 90.5716C765.138 91.5434 767.548 92.0456 769.986 92.0456C772.424 92.0456 774.834 91.5434 777.061 90.5716C779.694 89.4422 782.547 88.8863 785.422 88.9423C788.297 88.9982 791.125 89.6648 793.71 90.8958C795.187 91.6576 796.831 92.0587 798.5 92.0649C805.249 92.0649 810.872 85.4138 812.037 76.6408C810.689 75.6784 809.544 74.4709 808.663 73.0844C804.727 66.8263 798.571 62.7886 791.672 62.7886C784.773 62.7886 778.738 66.7183 774.781 72.9174C773.601 74.7874 771.948 76.3278 769.981 77.3897C768.014 78.4516 765.8 78.999 763.554 78.9789H763.383C758.041 78.9691 753.382 83.1837 751.122 89.3141Z" fill="#FAB510"/>
<path opacity="0.1" d="M730.545 61.8037L741.451 68.553L734.823 56.7639C736.701 55.3022 739.022 54.4934 741.421 54.465H741.602C742.358 54.4735 743.114 54.4176 743.861 54.298L747.557 56.5969L745.97 53.7773C748.6 52.9031 750.883 51.2434 752.497 49.0322L759.115 53.1387L754.927 45.7018C758.804 41.1531 763.965 38.363 769.76 38.363C776.638 38.363 782.814 42.3713 786.731 48.6097C787.902 50.4738 789.556 52.0012 791.527 53.0366C793.497 54.0719 795.712 54.5784 797.948 54.5043H798.309C805.911 54.5043 812.067 62.9237 812.067 73.3276C812.067 83.7314 805.911 92.141 798.309 92.141C796.64 92.1337 794.996 91.7327 793.519 90.9719C790.934 89.7399 788.105 89.0736 785.23 89.0193C782.354 88.9651 779.501 89.5241 776.869 90.6576C774.642 91.6257 772.232 92.126 769.795 92.126C767.357 92.126 764.947 91.6257 762.72 90.6576C760.106 89.5479 757.279 89.0017 754.431 89.056C751.582 89.1102 748.779 89.7637 746.211 90.9719C744.746 91.7156 743.121 92.1063 741.471 92.1115C733.879 92.1115 727.714 83.6922 727.714 73.2981C727.66 69.2952 728.634 65.3432 730.545 61.8037Z" fill="#FAB510"/>
<path opacity="0.1" d="M618.222 763.224C682.002 763.224 733.706 754.427 733.706 743.575C733.706 732.724 682.002 723.927 618.222 723.927C554.443 723.927 502.739 732.724 502.739 743.575C502.739 754.427 554.443 763.224 618.222 763.224Z" fill="#FAB510"/>
<path d="M557.776 650.245L378.836 647.995L379.369 643.505L388.015 569.44H545.163L556.721 643.505L557.605 649.125L557.776 650.245Z" fill="#D0D2D5"/>
<path opacity="0.1" d="M557.605 649.133H468.311L378.836 648.003L379.369 643.513H556.721L557.605 649.133Z" fill="black"/>
<path d="M586.455 644.636H349.011V650.246H586.455V644.636Z" fill="#D0D2D5"/>
<path d="M812.992 124.6C813.005 120.729 811.448 117.011 808.661 114.263C805.874 111.514 802.086 109.96 798.13 109.942H135.033C133.072 109.951 131.132 110.338 129.324 111.08C127.516 111.823 125.875 112.907 124.495 114.269C123.115 115.632 122.023 117.248 121.281 119.024C120.539 120.8 120.162 122.701 120.171 124.62V517.836H812.992V124.6Z" fill="#3F3D56"/>
<path d="M120.171 513.903V559.959C120.171 563.816 121.737 567.514 124.524 570.241C127.311 572.967 131.091 574.499 135.033 574.499H798.13C802.071 574.499 805.851 572.967 808.639 570.241C811.426 567.514 812.992 563.816 812.992 559.959V513.903H120.171Z" fill="#D0D2D5"/>
<path d="M787.754 134.606H148.849V488.093H787.754V134.606Z" fill="white"/>
<path d="M470.021 557.031C472.367 557.033 474.683 556.514 476.793 555.511C478.904 554.509 480.753 553.05 482.202 551.244C482.642 550.695 483.045 550.117 483.407 549.515L474.901 548.11L484.09 548.169C484.971 546.295 485.451 544.264 485.501 542.201C485.551 540.138 485.17 538.087 484.381 536.174L472.059 542.422L483.427 534.248C482.359 532.453 480.926 530.892 479.215 529.661C477.505 528.431 475.554 527.558 473.484 527.096C471.415 526.635 469.27 526.594 467.183 526.978C465.097 527.361 463.113 528.16 461.356 529.326C459.598 530.491 458.104 531.997 456.967 533.751C455.83 535.504 455.073 537.468 454.744 539.52C454.416 541.572 454.522 543.668 455.056 545.678C455.59 547.689 456.541 549.57 457.85 551.205C459.294 553.016 461.14 554.482 463.248 555.491C465.357 556.501 467.673 557.027 470.021 557.031Z" fill="#FAB510"/>
<path opacity="0.1" d="M485.518 574.49L556.906 644.635L545.951 574.49H485.518Z" fill="black"/>
<path opacity="0.1" d="M787.946 134.642H148.348V155.292H787.946V134.642Z" fill="#444053"/>
<path opacity="0.3" d="M562.549 138.241H371.007C370.685 138.241 370.424 138.496 370.424 138.811V150.237C370.424 150.551 370.685 150.806 371.007 150.806H562.549C562.87 150.806 563.131 150.551 563.131 150.237V138.811C563.131 138.496 562.87 138.241 562.549 138.241Z" fill="#FAB510"/>
<path d="M557.401 145.819H556.929L556.759 145.672C557.343 144.985 557.663 144.119 557.662 143.225C557.657 142.492 557.429 141.776 557.007 141.169C556.586 140.562 555.991 140.091 555.296 139.815C554.601 139.538 553.839 139.47 553.104 139.617C552.369 139.764 551.696 140.121 551.168 140.643C550.641 141.164 550.283 141.827 550.14 142.547C549.997 143.267 550.076 144.013 550.365 144.689C550.655 145.366 551.143 145.944 551.768 146.349C552.393 146.755 553.127 146.97 553.877 146.968C554.791 146.965 555.676 146.649 556.377 146.074L556.548 146.222V146.683L559.49 149.562L560.364 148.697L557.401 145.819ZM553.877 145.819C553.352 145.821 552.838 145.67 552.401 145.387C551.964 145.103 551.622 144.698 551.42 144.225C551.218 143.751 551.164 143.229 551.265 142.725C551.366 142.222 551.618 141.759 551.988 141.395C552.359 141.031 552.831 140.783 553.346 140.682C553.86 140.581 554.394 140.632 554.879 140.828C555.364 141.024 555.778 141.357 556.07 141.783C556.362 142.21 556.518 142.712 556.518 143.225C556.52 143.566 556.454 143.903 556.322 144.219C556.191 144.534 555.996 144.82 555.751 145.062C555.505 145.303 555.213 145.494 554.891 145.624C554.57 145.754 554.225 145.82 553.877 145.819Z" fill="#3F3D56"/>
<path opacity="0.8" d="M159.844 148.751C161.979 148.751 163.71 147.057 163.71 144.968C163.71 142.879 161.979 141.186 159.844 141.186C157.709 141.186 155.978 142.879 155.978 144.968C155.978 147.057 157.709 148.751 159.844 148.751Z" fill="#FA5959"/>
<path opacity="0.8" d="M170.488 148.751C172.624 148.751 174.354 147.057 174.354 144.968C174.354 142.879 172.624 141.186 170.488 141.186C168.353 141.186 166.622 142.879 166.622 144.968C166.622 147.057 168.353 148.751 170.488 148.751Z" fill="#FED253"/>
<path opacity="0.8" d="M181.127 148.751C183.263 148.751 184.994 147.057 184.994 144.968C184.994 142.879 183.263 141.186 181.127 141.186C178.992 141.186 177.261 142.879 177.261 144.968C177.261 147.057 178.992 148.751 181.127 148.751Z" fill="#8CCF4D"/>
<path d="M502.148 286.288C493.382 274.892 480.678 267.701 466.539 267.701C452.4 267.701 439.697 274.892 430.93 286.288C432.868 290.939 435.736 295.164 439.365 298.716C443.851 303.102 449.375 306.334 455.447 308.125C461.519 309.915 467.949 310.208 474.164 308.978C480.38 307.747 486.188 305.032 491.07 301.073C495.953 297.114 499.759 292.035 502.148 286.288Z" fill="#FAB510"/>
<path d="M424.538 291.972C425.088 292.363 425.681 292.692 426.305 292.955C433.033 306.267 446.972 316.454 462.968 317.309V380.43C450.868 379.723 441.177 373.759 433.033 364.456C432.33 364.976 431.808 365.448 431.326 365.89C430.65 366.516 430.177 367.324 429.968 368.212C429.759 369.1 429.823 370.028 430.151 370.881C430.593 372.055 430.708 373.323 430.483 374.555C430.259 375.787 429.704 376.938 428.875 377.891C428.046 378.843 426.972 379.563 425.765 379.976C424.558 380.389 423.26 380.481 422.005 380.241C420.749 380.002 419.582 379.44 418.622 378.613C417.662 377.787 416.943 376.725 416.541 375.537C416.139 374.35 416.066 373.079 416.331 371.855C416.597 370.631 417.19 369.498 418.05 368.572C418.309 368.294 418.591 368.038 418.894 367.806C419.068 367.65 419.26 367.515 419.466 367.403C420.571 363.493 423.192 359.966 427.45 356.734C422.658 348.722 419.726 339.777 418.864 330.533C418.243 330.538 417.623 330.578 417.006 330.65C416.169 330.76 415.378 331.093 414.721 331.613C414.064 332.133 413.566 332.82 413.28 333.598C412.817 334.804 412.024 335.864 410.989 336.661C409.954 337.459 408.716 337.964 407.408 338.122C406.1 338.281 404.773 338.086 403.571 337.559C402.368 337.032 401.336 336.193 400.586 335.133C399.836 334.073 399.396 332.833 399.315 331.546C399.234 330.26 399.515 328.976 400.126 327.834C400.738 326.692 401.657 325.736 402.785 325.068C403.912 324.401 405.204 324.048 406.522 324.049C406.814 324.053 407.106 324.073 407.396 324.107C408.475 323.348 409.672 322.764 410.941 322.378C413.419 321.62 415.996 321.213 418.593 321.17C418.849 314.616 420.115 308.138 422.348 301.954C420.726 301.052 419.196 299.999 417.779 298.81C416.399 297.603 415.267 296.15 414.445 294.527C414.01 293.706 413.345 293.025 412.527 292.562C411.898 292.192 411.324 291.739 410.82 291.216C409.928 290.274 409.315 289.112 409.047 287.855C408.78 286.598 408.869 285.293 409.304 284.081C409.739 282.87 410.504 281.797 411.516 280.98C412.528 280.162 413.749 279.63 415.048 279.442C416.346 279.253 417.673 279.415 418.884 279.91C420.095 280.404 421.146 281.213 421.922 282.249C422.698 283.284 423.17 284.508 423.288 285.787C423.405 287.066 423.164 288.352 422.589 289.506C423.039 290.462 423.705 291.306 424.538 291.972Z" fill="#FAB510"/>
<path d="M683.866 732.121C683.283 731.216 682.545 730.416 681.687 729.754C677.298 725.696 675.26 719.743 674.175 713.907C673.091 708.071 672.779 702.118 671.042 696.41C670.097 693.483 668.915 690.635 667.507 687.892C666.503 685.79 665.238 681.674 663.4 680.2C663.039 679.895 662.603 679.688 662.135 679.601C661.267 677.796 660.029 676.184 658.5 674.865C655.628 672.321 652.123 670.297 650.205 667.006C649.678 665.865 649.028 664.781 648.267 663.774C646.971 662.379 644.923 661.809 643.728 660.335C642.171 658.429 642.523 655.698 642.723 653.272C642.924 650.845 642.723 647.937 640.574 646.66C639.289 645.884 637.632 645.962 636.297 645.275C634.288 644.292 633.495 641.817 633.535 639.606C633.575 637.396 634.278 635.244 634.459 633.034C635.021 626 630.281 619.005 632.109 612.187C632.802 609.603 634.389 607.363 635.563 604.956C635.973 604.155 636.309 603.32 636.568 602.461C639.701 603.676 642.994 604.453 646.349 604.769C640.815 592.627 642.221 578.519 639.641 565.472L639.972 565.03C642.578 561.667 644.059 557.597 644.21 553.379C644.21 548.525 641.89 543.987 640.846 539.232C639.952 535.194 639.992 530.97 638.837 527.001C638.036 524.534 636.972 522.157 635.664 519.907C634.412 517.635 633.096 515.398 631.717 513.197C630.432 509.032 629.143 504.866 627.851 500.701C626.044 494.856 624.186 488.912 620.671 483.862C619.386 482.015 618.994 478.262 617.016 477.142C615.41 476.329 613.587 476.017 611.794 476.248C609.002 474.716 606.552 472.505 606.201 469.479C606.166 468.818 606.234 468.156 606.401 467.515H606.743C611.161 467.122 613.401 463.31 615.7 459.97C619.416 454.566 618 447.257 615.7 441.107C615.13 439.166 614.098 437.385 612.688 435.91C609.464 432.963 604.363 433.611 600.205 432.187C598.81 431.715 597.504 430.998 596.078 430.664C593.317 430.035 590.425 430.919 587.894 432.167C585.363 433.415 583.003 435.026 580.352 436.008C577.701 436.991 574.428 437.767 573.775 440.429C573.592 441.326 573.668 442.255 573.996 443.111C574.606 444.819 575.678 446.334 577.099 447.493C575.97 449.77 575.359 452.259 575.309 454.789C575.259 457.319 575.77 459.83 576.808 462.148C577.846 464.466 579.385 466.536 581.32 468.215C583.254 469.895 585.538 471.144 588.014 471.877C588.778 473.075 589.491 474.293 590.143 475.541C591.308 477.742 592.292 480.335 591.891 482.693C591.164 483.448 590.493 484.253 589.882 485.1C587 489.03 585.363 493.637 583.857 498.235C581.834 504.106 580.213 510.102 579.007 516.184C576.556 521.283 573.564 526.156 571.786 531.51C568.604 531.514 565.436 531.097 562.367 530.272L553.892 528.396C550.939 527.737 547.866 527.03 545.557 525.124C544.331 524.142 543.378 522.835 542.132 521.862C540.887 520.89 538.387 519.75 537.021 520.556C536.771 520.704 536.539 520.879 536.328 521.076C535.083 518.611 533.898 516.164 532.452 513.777C530.373 510.437 527.28 507.381 523.364 506.743C520.971 506.366 518.522 506.924 516.545 508.295C514.256 509.887 512.82 513.207 514.537 515.447C514.966 515.946 515.432 516.412 515.933 516.842C517.095 518.152 518.134 519.563 519.036 521.057C522.273 525.502 527.115 528.578 532.582 529.663L532.231 530.645C531.518 532.689 530.002 535.155 530.383 537.277L568.081 549.901C570.499 550.861 573.066 551.416 575.673 551.541C576.69 551.533 577.702 551.401 578.685 551.148V553.035V553.113C578.786 566.072 576.677 578.941 576.285 591.89C576.215 594.257 576.285 596.802 577.812 598.649C579.519 600.673 582.552 601.075 585.193 600.614C585.829 600.509 586.451 600.371 587.06 600.201C587.954 603.461 588.598 606.78 588.988 610.133L591.479 627.679C591.799 629.476 591.931 631.3 591.871 633.122C591.579 637.238 589.36 640.923 587.753 644.725C586.147 648.527 585.193 653.075 587.301 656.632C587.964 657.732 588.878 658.665 589.471 659.805C590.224 661.569 590.567 663.475 590.475 665.385C590.629 670.677 590.776 675.976 590.917 681.281C590.478 681.21 590.029 681.297 589.651 681.526C587.563 683.118 587.793 690.692 587.643 693.04C587.482 696.97 587.643 700.978 587.422 704.947C587.161 710.296 586.282 715.599 584.801 720.755C584.439 722.43 583.648 723.989 582.501 725.283C581.327 726.283 579.926 726.993 578.414 727.356C573.411 728.889 568.179 729.587 562.939 729.419C560.821 729.351 558.611 729.154 556.643 729.94C554.675 730.726 553.088 732.888 553.801 734.852C554.414 736.503 556.272 737.289 557.949 737.908C561.78 739.228 565.477 740.892 568.995 742.879C570.349 743.781 571.776 744.573 573.263 745.246C574.688 745.747 576.162 746.103 577.661 746.307L595.466 749.314C599.111 749.923 603.499 750.296 605.819 747.349C607.074 745.757 607.255 743.596 607.195 741.572C607.094 737.642 606.291 733.644 606.813 729.714C607.21 727.391 607.835 725.111 608.681 722.906C610.455 717.752 612.236 712.6 614.023 707.452C615.811 702.285 617.618 697.068 618.311 691.645C618.562 689.68 618.542 687.44 617.006 686.212C616.617 685.901 616.165 685.673 615.68 685.544C615.62 680.809 614.987 676.064 615.258 671.329C615.329 670.15 615.449 668.971 615.55 667.782C616.48 668.647 617.312 669.609 618.03 670.651C619.747 673.284 620.38 676.761 623.001 678.51C625.23 680.003 628.534 679.925 630.101 682.086C630.604 682.916 630.983 683.813 631.225 684.749C632.135 687.065 633.499 689.184 635.242 690.987C635.84 693.144 636.672 695.232 637.723 697.216C639.202 700.274 640.675 703.323 642.141 706.362C643.648 709.642 645.324 712.846 647.162 715.96C648.565 717.921 649.697 720.055 650.526 722.307C651.942 727.16 649.632 732.485 645.977 736.061C642.322 739.637 637.502 741.69 632.752 743.606C632.251 743.771 631.793 744.039 631.406 744.392C630.994 744.869 630.776 745.477 630.794 746.101C630.794 748.37 632.702 750.316 634.891 751.013C637.129 751.601 639.474 751.685 641.749 751.259C654.583 749.736 667.377 746.671 678.724 740.57C680.421 739.783 681.925 738.647 683.133 737.24C683.716 736.531 684.092 735.68 684.221 734.779C684.35 733.878 684.227 732.96 683.866 732.121Z" fill="url(#paint0_linear_1054_16123)"/>
<path d="M629.628 511.816C631.771 515.032 633.779 518.326 635.653 521.699C636.967 523.93 638.034 526.291 638.837 528.743C640.002 532.673 639.972 536.868 640.845 540.876C641.849 545.592 644.199 550.091 644.199 554.925C644.046 559.113 642.565 563.15 639.961 566.478C637.366 569.777 634.394 572.777 631.104 575.418C623.521 556.199 619.285 535.873 618.572 515.284C618.471 512.435 618.451 509.497 619.516 506.835C620.169 505.165 623.302 500.587 625.32 502.385C626.053 503.043 626.244 506.01 626.696 507.002C627.542 508.68 628.523 510.289 629.628 511.816Z" fill="#2F2E41"/>
<path opacity="0.1" d="M629.628 511.816C631.771 515.032 633.779 518.326 635.653 521.699C636.967 523.93 638.034 526.291 638.837 528.743C640.002 532.673 639.972 536.868 640.845 540.876C641.849 545.592 644.199 550.091 644.199 554.925C644.046 559.113 642.565 563.15 639.961 566.478C637.366 569.777 634.394 572.777 631.104 575.418C623.521 556.199 619.285 535.873 618.572 515.284C618.471 512.435 618.451 509.497 619.516 506.835C620.169 505.165 623.302 500.587 625.32 502.385C626.053 503.043 626.244 506.01 626.696 507.002C627.542 508.68 628.523 510.289 629.628 511.816Z" fill="black"/>
<path d="M295.989 498.476C298.885 487.862 301.433 485.344 300.413 480.53C299.392 475.716 298.505 456.821 309.728 456.574L325.272 464.179L325.726 464.399L332.607 463.018L355.439 425.33C355.439 425.33 323.055 402.772 342.449 387.806C361.844 372.841 368.749 371.481 379.572 364.286C390.396 357.092 394.297 356.317 392.705 353.619C391.114 350.921 383.063 354.052 383.063 354.052C383.063 354.052 382.623 354.073 381.813 354.134C370.938 354.934 292.411 363.024 275.182 430.88C275.182 430.88 285.736 451.837 264.958 470.058C250.594 482.646 258.922 493.58 266.85 499.496C269.36 501.456 272.17 503.017 275.176 504.12C278.12 504.978 281.153 505.506 284.218 505.695C289.11 505.893 294.317 504.562 295.989 498.476Z" fill="#D0D2D5"/>
<path opacity="0.1" d="M349.595 420.017L351.815 426.54L329.883 464.737C329.883 464.737 293.732 448.566 290.187 472.488C286.642 496.41 288.891 502.944 287.937 515.715C286.983 528.487 288.249 532.181 285.065 532.181C281.882 532.181 280.627 523.791 280.627 523.791C280.627 523.791 280.426 523.407 280.074 522.69C278.478 510.744 270.384 440.864 299.727 444.578C299.727 444.578 323.536 455.463 327.342 451.121C330.355 447.682 343.731 427.906 349.174 419.791L349.595 420.017Z" fill="black"/>
<path opacity="0.1" d="M365.38 364.14L350.879 380.261C350.879 380.261 334.038 402.307 330.544 401.374C329.497 401.15 328.431 401.029 327.36 401.01C326.195 400.923 325.078 400.514 324.14 399.831C323.202 399.148 322.481 398.219 322.061 397.152C321.64 396.085 321.538 394.923 321.765 393.801C321.992 392.679 322.539 391.643 323.344 390.812C329.088 384.918 339.672 373.728 340.365 371.243C341.058 368.757 347.796 357.862 351.17 352.527C354.16 353.674 356.946 355.276 359.425 357.272C361.669 359.334 363.667 361.637 365.38 364.14Z" fill="black"/>
<path d="M775.663 596.071C773.203 600.884 760.6 618.941 755.087 626.83L752.507 630.544C752.507 630.544 751.502 637.067 735.043 628.982C718.584 620.896 331.875 461.262 331.875 461.262L329.254 453.56L348.334 425.61L772.179 585.814C772.179 585.814 778.847 589.852 775.663 596.071Z" fill="#454B69"/>
<path opacity="0.1" d="M755.087 626.835L752.507 630.548C752.507 630.548 751.502 637.072 735.043 628.986C718.585 620.901 331.875 461.267 331.875 461.267L329.254 453.564L755.087 626.835Z" fill="black"/>
<path d="M521.821 522.559C517.894 521.93 513.536 522.235 510.483 524.73C508.638 526.259 507.472 528.428 507.23 530.782C506.969 533.503 508.585 536.735 511.377 536.942C512.049 536.949 512.72 536.906 513.385 536.814C515.149 536.806 516.91 536.951 518.647 537.246C522.067 537.561 525.515 537.068 528.7 535.81C531.886 534.552 534.716 532.565 536.954 530.016C539.354 527.068 536.191 525.791 533.359 525.202C529.483 524.396 525.697 523.168 521.821 522.559Z" fill="#FBBEBE"/>
<path d="M588.992 611.286L591.482 628.596C591.8 630.383 591.927 632.197 591.864 634.01C591.573 638.087 589.353 641.741 587.757 645.514C586.16 649.286 585.186 653.806 587.305 657.303C587.958 658.393 588.871 659.327 589.464 660.457C590.217 662.204 590.56 664.094 590.468 665.988L591.151 690.548C598.903 691.066 606.683 691.023 614.428 690.42C614.731 690.435 615.03 690.344 615.272 690.165C615.476 689.911 615.58 689.594 615.563 689.271C615.905 683.524 614.88 677.767 615.212 672.02C615.332 669.917 615.633 667.825 615.674 665.713C615.794 657.156 611.476 648.775 612.782 640.317C613.191 638.182 613.728 636.073 614.388 634C618.516 619.263 617.642 603.78 616.728 588.563C616.744 588.318 616.673 588.075 616.527 587.875C616.379 587.73 616.19 587.631 615.985 587.59C611.592 586.3 606.946 586.065 602.44 586.902C597.933 587.74 593.7 589.627 590.097 592.404C589.002 593.268 586.24 594.103 585.517 595.135C584.513 596.569 585.829 598.004 586.411 599.527C587.701 603.344 588.567 607.287 588.992 611.286Z" fill="#3F3D56"/>
<path opacity="0.1" d="M588.992 611.286L591.482 628.596C591.8 630.383 591.927 632.197 591.864 634.01C591.573 638.087 589.353 641.741 587.757 645.514C586.16 649.286 585.186 653.806 587.305 657.303C587.958 658.393 588.871 659.327 589.464 660.457C590.217 662.204 590.56 664.094 590.468 665.988L591.151 690.548C598.903 691.066 606.683 691.023 614.428 690.42C614.731 690.435 615.03 690.344 615.272 690.165C615.476 689.911 615.58 689.594 615.563 689.271C615.905 683.524 614.88 677.767 615.212 672.02C615.332 669.917 615.633 667.825 615.674 665.713C615.794 657.156 611.476 648.775 612.782 640.317C613.191 638.182 613.728 636.073 614.388 634C618.516 619.263 617.642 603.78 616.728 588.563C616.744 588.318 616.673 588.075 616.527 587.875C616.379 587.73 616.19 587.631 615.985 587.59C611.592 586.3 606.946 586.065 602.44 586.902C597.933 587.74 593.7 589.627 590.097 592.404C589.002 593.268 586.24 594.103 585.517 595.135C584.513 596.569 585.829 598.004 586.411 599.527C587.701 603.344 588.567 607.287 588.992 611.286Z" fill="black"/>
<path d="M635.556 606.073C634.382 608.461 632.805 610.681 632.102 613.245C630.274 620.014 635.004 626.999 634.442 633.935C634.261 636.126 633.568 638.257 633.518 640.448C633.468 642.639 634.291 645.076 636.28 646.087C637.615 646.755 639.292 646.687 640.547 647.453C642.666 648.72 642.907 651.599 642.696 654.016C642.486 656.432 642.134 659.134 643.701 661.02C644.896 662.484 646.944 663.054 648.23 664.439C648.994 665.433 649.644 666.508 650.168 667.642C652.086 670.923 655.59 672.927 658.462 675.501C661.334 678.075 663.765 681.848 662.479 685.414C661.535 688.027 658.884 689.638 656.333 690.866C651.68 693.117 646.768 694.815 641.702 695.926C641.159 696.087 640.583 696.117 640.025 696.014C639.46 695.812 638.956 695.475 638.559 695.032C635.597 692.193 632.534 689.216 631.168 685.394C630.925 684.468 630.546 683.581 630.043 682.761C628.477 680.61 625.173 680.688 622.944 679.205C620.333 677.466 619.7 674.018 617.993 671.414C616.286 668.811 613.785 667.259 611.968 664.97C608.895 661.158 608.142 656.069 605.942 651.717C605.009 649.87 603.814 648.141 603.07 646.215C602.321 643.907 601.859 641.519 601.695 639.102C600.279 627.628 596.674 616.074 598.943 604.717C599.445 602.222 600.219 599.805 600.54 597.231C601.092 592.781 600.219 588.223 600.891 583.782C600.908 583.225 601.053 582.678 601.315 582.183C601.578 581.688 601.951 581.257 602.408 580.923C602.95 580.685 603.54 580.567 604.135 580.579C610.088 580.268 616.057 580.399 621.99 580.972C625.002 581.257 628.376 581.856 630.184 584.263C631.72 586.326 631.64 589.087 632.132 591.592C632.745 594.677 634.341 596.357 636.018 598.774C637.695 601.191 636.792 603.578 635.556 606.073Z" fill="#3F3D56"/>
<path d="M612.379 685.896C613.966 685.896 615.723 685.797 616.948 686.78C618.475 688.008 618.495 690.258 618.254 692.173C617.551 697.557 615.753 702.734 613.956 707.892L608.613 723.228C607.768 725.416 607.142 727.68 606.745 729.987C606.223 733.917 607.027 737.846 607.127 741.776C607.127 743.741 606.996 745.922 605.741 747.504C603.472 750.362 599.043 750.028 595.398 749.468L577.613 746.521C576.113 746.326 574.639 745.973 573.215 745.47C571.731 744.8 570.304 744.014 568.947 743.122C565.428 741.155 561.73 739.51 557.901 738.21C556.234 737.601 554.366 736.825 553.764 735.184C553.051 733.219 554.637 731.058 556.605 730.272C558.574 729.486 560.773 729.682 562.902 729.741C568.137 729.904 573.363 729.214 578.367 727.698C579.874 727.336 581.271 726.629 582.444 725.635C583.635 724.325 584.446 722.727 584.794 721.008C586.309 715.887 587.212 710.612 587.485 705.289C587.696 701.359 587.555 697.429 587.716 693.5C587.816 691.171 587.585 683.675 589.674 682.074C591.271 680.875 597.838 684.186 599.997 684.668C604.056 685.578 608.216 685.99 612.379 685.896Z" fill="#2F2E41"/>
<path d="M670.97 696.822C672.707 702.451 672.979 708.405 674.103 714.191C675.228 719.978 677.216 725.882 681.605 729.91C682.459 730.573 683.195 731.37 683.784 732.268C684.154 733.109 684.28 734.034 684.147 734.941C684.014 735.847 683.628 736.7 683.031 737.406C681.818 738.803 680.315 739.932 678.622 740.717C667.285 746.768 654.521 749.824 641.657 751.337C639.384 751.753 637.045 751.669 634.809 751.091C632.62 750.364 630.681 748.439 630.722 746.179C630.7 745.559 630.915 744.953 631.324 744.479C631.715 744.13 632.177 743.865 632.68 743.703C637.42 741.797 642.23 739.724 645.895 736.207C649.561 732.69 651.86 727.365 650.444 722.591C649.606 720.355 648.468 718.237 647.06 716.294C645.224 713.205 643.548 710.028 642.039 706.774L637.621 697.706C636.325 695.054 635.02 692.322 634.799 689.395C640.349 689.638 645.892 688.769 651.087 686.84C653.512 685.873 655.771 684.548 657.785 682.911C659.492 681.516 661.049 678.912 663.348 680.73C665.196 682.184 666.361 686.28 667.445 688.353C668.854 691.078 670.033 693.91 670.97 696.822Z" fill="#2F2E41"/>
<path d="M606.222 471.658C606.663 475.43 610.399 477.916 613.964 479.409L591.399 486.453C592.856 483.722 591.681 480.382 590.235 477.611C589.057 475.418 587.714 473.313 586.218 471.314C585.997 471.01 585.746 470.626 585.906 470.273C586.05 470.042 586.275 469.87 586.539 469.791C591.179 467.768 595.959 465.675 601.03 464.938C602.496 464.732 605.267 464.162 606.362 465.616C607.457 467.07 606.011 469.919 606.222 471.658Z" fill="#FBBEBE"/>
<path opacity="0.1" d="M606.222 471.658C606.663 475.43 610.399 477.916 613.964 479.409L591.399 486.453C592.856 483.722 591.681 480.382 590.235 477.611C589.057 475.418 587.714 473.313 586.218 471.314C585.997 471.01 585.746 470.626 585.906 470.273C586.05 470.042 586.275 469.87 586.539 469.791C591.179 467.768 595.959 465.675 601.03 464.938C602.496 464.732 605.267 464.162 606.362 465.616C607.457 467.07 606.011 469.919 606.222 471.658Z" fill="black"/>
<path d="M593.105 474.725C602.877 474.725 610.799 466.975 610.799 457.415C610.799 447.855 602.877 440.104 593.105 440.104C583.333 440.104 575.411 447.855 575.411 457.415C575.411 466.975 583.333 474.725 593.105 474.725Z" fill="#FBBEBE"/>
<path d="M577.77 599.861C579.487 601.875 582.509 602.268 585.15 601.826C591.326 600.844 596.377 596.393 602.423 594.792C609.834 592.827 617.677 595.352 624.676 598.447C631.675 601.541 638.634 605.324 646.286 605.854C639.367 590.764 643.324 572.609 636.706 557.391C635.09 553.668 632.83 550.082 632.469 546.054C632.017 541.053 634.567 536.23 634.959 531.258C635.321 526.828 633.955 522.417 632.649 518.192C631.036 513.005 629.422 507.818 627.809 502.631C626.001 496.825 624.144 490.92 620.639 485.929C619.344 484.092 618.952 480.369 616.984 479.259C612.686 476.832 606.168 479.887 601.509 480.054C596.849 480.221 592.602 483.463 589.88 487.128C586.998 490.999 585.361 495.606 583.855 500.165C581.457 506.952 579.666 513.931 578.503 521.022C578.352 522.083 578.221 523.144 578.121 524.215C577.117 534.304 578.583 544.452 578.663 554.591V554.66C578.764 567.52 576.655 580.301 576.263 593.151C576.223 595.499 576.283 598.063 577.77 599.861Z" fill="#2F2E41"/>
<path opacity="0.1" d="M578.698 554.591C582.162 553.737 585.296 551.546 587.987 549.149C590.318 547.108 592.388 544.799 594.153 542.272C596.374 538.874 598.159 535.222 599.465 531.396C603.183 521.166 605.545 510.512 606.494 499.694C606.755 496.746 606.836 493.583 605.038 491.245C604.029 489.978 602.611 489.083 601.016 488.705C599.421 488.326 597.741 488.488 596.251 489.162C593.882 490.292 592.345 492.581 590.919 494.772C588.097 499.114 585.255 503.515 583.438 508.349C582.634 510.49 582.042 512.691 581.259 514.843C580.462 516.965 579.543 519.041 578.507 521.061C578.357 522.122 578.226 523.183 578.126 524.254C577.192 534.344 578.618 544.453 578.698 554.591Z" fill="black"/>
<path d="M604.981 489.354C606.778 491.692 606.698 494.885 606.447 497.793C605.5 508.612 603.137 519.266 599.417 529.496C598.122 533.354 596.337 537.037 594.105 540.46C592.337 542.985 590.267 545.293 587.939 547.337C584.525 550.382 580.368 553.104 575.738 553.143C573.133 553.023 570.566 552.475 568.146 551.522L530.439 538.967C530.057 536.864 531.573 534.408 532.286 532.384L534.295 526.559C534.867 524.947 535.53 523.209 537.026 522.334C538.522 521.46 540.892 522.658 542.138 523.631C543.383 524.604 544.327 525.881 545.552 526.873C547.872 528.759 550.934 529.467 553.887 530.115L562.352 531.972C565.421 532.794 568.59 533.207 571.772 533.2C574.132 526.146 578.62 519.937 581.161 512.942C581.944 510.801 582.537 508.59 583.35 506.448C585.158 501.615 588.01 497.223 590.831 492.871C592.247 490.69 593.784 488.401 596.164 487.262C597.658 486.579 599.345 486.414 600.947 486.795C602.55 487.175 603.972 488.078 604.981 489.354Z" fill="#2F2E41"/>
<path d="M598.751 461.325C598.617 460.187 598.255 459.085 597.686 458.083C597.39 457.582 596.939 457.185 596.397 456.952C595.855 456.719 595.251 456.661 594.674 456.786C592.906 457.327 592.314 459.999 590.466 460.087C589.221 460.146 588.327 458.909 587.935 457.749C587.544 456.59 587.333 455.264 586.399 454.448C585.749 453.973 585.002 453.638 584.21 453.466C579.922 452.14 575.493 449.693 574.067 445.518C573.732 444.67 573.652 443.746 573.836 442.856C574.489 440.213 577.853 439.417 580.414 438.464C582.975 437.511 585.435 435.88 587.945 434.643C590.456 433.405 593.368 432.53 596.13 433.159C597.531 433.59 598.909 434.092 600.257 434.662C604.414 436.077 609.506 435.419 612.729 438.356C614.138 439.813 615.17 441.578 615.742 443.504C617.991 449.615 619.417 456.865 615.692 462.229C613.392 465.54 611.163 469.322 606.744 469.725C601.602 470.147 599.564 465.589 598.751 461.325Z" fill="#2F2E41"/>
<g opacity="0.1">
<path d="M590.894 455.663C590.502 454.504 590.291 453.177 589.367 452.362C588.717 451.886 587.971 451.551 587.178 451.38C582.88 450.053 578.462 447.607 577.026 443.432C576.698 442.582 576.622 441.66 576.805 440.769C576.903 440.35 577.084 439.953 577.337 439.6C575.7 440.298 574.274 441.221 573.872 442.852C573.688 443.743 573.768 444.667 574.103 445.515C575.529 449.69 579.958 452.136 584.246 453.462C585.039 453.634 585.785 453.969 586.435 454.445C587.369 455.26 587.57 456.577 587.971 457.746C588.373 458.915 589.257 460.143 590.502 460.084C591.747 460.025 592.35 458.915 593.143 457.982C592.049 457.844 591.255 456.744 590.894 455.663Z" fill="black"/>
<path d="M609.694 467.615C604.532 468.077 602.493 463.479 601.66 459.245C601.55 458.109 601.208 457.007 600.656 456.003C600.359 455.502 599.907 455.107 599.366 454.874C598.824 454.641 598.221 454.582 597.643 454.706C596.727 455.141 595.957 455.822 595.424 456.671C595.885 456.714 596.329 456.861 596.723 457.099C597.116 457.338 597.449 457.662 597.693 458.046C598.262 459.048 598.624 460.15 598.758 461.288C599.571 465.523 601.61 470.13 606.791 469.659C608.84 469.438 610.73 468.478 612.094 466.967C611.336 467.312 610.525 467.531 609.694 467.615Z" fill="black"/>
</g>
<path d="M816.536 650.356C834.444 650.356 848.962 647.624 848.962 644.255C848.962 640.886 834.444 638.154 816.536 638.154C798.628 638.154 784.11 640.886 784.11 644.255C784.11 647.624 798.628 650.356 816.536 650.356Z" fill="#FAB510"/>
<path d="M815.991 646.495C818.076 646.495 819.766 644.331 819.766 641.661C819.766 638.992 818.076 636.828 815.991 636.828C813.905 636.828 812.215 638.992 812.215 641.661C812.215 644.331 813.905 646.495 815.991 646.495Z" fill="#3F3D56"/>
<path d="M815.991 640.578C818.076 640.578 819.766 638.414 819.766 635.745C819.766 633.075 818.076 630.911 815.991 630.911C813.905 630.911 812.215 633.075 812.215 635.745C812.215 638.414 813.905 640.578 815.991 640.578Z" fill="#3F3D56"/>
<path d="M815.991 634.68C818.076 634.68 819.766 632.516 819.766 629.846C819.766 627.177 818.076 625.013 815.991 625.013C813.905 625.013 812.215 627.177 812.215 629.846C812.215 632.516 813.905 634.68 815.991 634.68Z" fill="#3F3D56"/>
<path d="M815.991 628.754C818.076 628.754 819.766 626.59 819.766 623.921C819.766 621.251 818.076 619.087 815.991 619.087C813.905 619.087 812.215 621.251 812.215 623.921C812.215 626.59 813.905 628.754 815.991 628.754Z" fill="#3F3D56"/>
<path d="M815.991 622.847C818.076 622.847 819.766 620.683 819.766 618.014C819.766 615.344 818.076 613.18 815.991 613.18C813.905 613.18 812.215 615.344 812.215 618.014C812.215 620.683 813.905 622.847 815.991 622.847Z" fill="#3F3D56"/>
<path d="M815.991 616.949C818.076 616.949 819.766 614.784 819.766 612.115C819.766 609.446 818.076 607.281 815.991 607.281C813.905 607.281 812.215 609.446 812.215 612.115C812.215 614.784 813.905 616.949 815.991 616.949Z" fill="#3F3D56"/>
<path d="M815.991 611.032C818.076 611.032 819.766 608.868 819.766 606.199C819.766 603.529 818.076 601.365 815.991 601.365C813.905 601.365 812.215 603.529 812.215 606.199C812.215 608.868 813.905 611.032 815.991 611.032Z" fill="#3F3D56"/>
<path d="M830.123 565.795C830.638 565.152 831.108 564.476 831.528 563.771L821.607 562.179L832.342 562.248C833.367 560.056 833.925 557.683 833.984 555.273C834.043 552.863 833.6 550.466 832.683 548.229L818.283 555.538L831.559 545.989C830.313 543.891 828.639 542.066 826.642 540.629C824.645 539.191 822.366 538.17 819.948 537.631C817.531 537.091 815.025 537.044 812.588 537.493C810.151 537.941 807.834 538.875 805.782 540.237C803.73 541.599 801.986 543.36 800.659 545.409C799.332 547.459 798.45 549.753 798.068 552.151C797.687 554.548 797.814 556.996 798.441 559.343C799.068 561.691 800.182 563.887 801.714 565.795C800.907 566.792 800.214 567.873 799.645 569.017L812.529 575.57L798.791 571.06C797.832 573.844 797.597 576.819 798.107 579.714C798.617 582.609 799.857 585.335 801.714 587.644C799.619 590.253 798.316 593.386 797.955 596.684C797.594 599.983 798.189 603.315 799.671 606.299C801.154 609.282 803.465 611.798 806.339 613.558C809.214 615.318 812.537 616.251 815.928 616.251C819.319 616.251 822.642 615.318 825.517 613.558C828.392 611.798 830.702 609.282 832.185 606.299C833.667 603.315 834.262 599.983 833.901 596.684C833.54 593.386 832.238 590.253 830.143 587.644C832.652 584.526 834.016 580.673 834.016 576.704C834.016 572.736 832.652 568.883 830.143 565.765L830.123 565.795Z" fill="#FAB510"/>
<path opacity="0.1" d="M797.808 576.696C797.806 580.67 799.18 584.527 801.704 587.64C799.61 590.249 798.307 593.382 797.946 596.681C797.585 599.98 798.18 603.311 799.662 606.295C801.145 609.279 803.456 611.794 806.33 613.554C809.205 615.314 812.528 616.248 815.919 616.248C819.31 616.248 822.633 615.314 825.508 613.554C828.382 611.794 830.693 609.279 832.176 606.295C833.658 603.311 834.253 599.98 833.892 596.681C833.531 593.382 832.228 590.249 830.133 587.64C832.534 584.624 797.808 574.711 797.808 576.696Z" fill="black"/>
<path d="M149.048 751.627C174.831 751.627 195.733 747.695 195.733 742.844C195.733 737.994 174.831 734.062 149.048 734.062C123.264 734.062 102.362 737.994 102.362 742.844C102.362 747.695 123.264 751.627 149.048 751.627Z" fill="#FAB510"/>
<path d="M148.264 746.073C151.265 746.073 153.697 742.955 153.697 739.108C153.697 735.261 151.265 732.143 148.264 732.143C145.264 732.143 142.832 735.261 142.832 739.108C142.832 742.955 145.264 746.073 148.264 746.073Z" fill="#3F3D56"/>
<path d="M148.264 737.566C151.265 737.566 153.697 734.447 153.697 730.6C153.697 726.753 151.265 723.635 148.264 723.635C145.264 723.635 142.832 726.753 142.832 730.6C142.832 734.447 145.264 737.566 148.264 737.566Z" fill="#3F3D56"/>
<path d="M148.264 729.059C151.265 729.059 153.697 725.94 153.697 722.093C153.697 718.246 151.265 715.128 148.264 715.128C145.264 715.128 142.832 718.246 142.832 722.093C142.832 725.94 145.264 729.059 148.264 729.059Z" fill="#3F3D56"/>
<path d="M148.264 720.551C151.265 720.551 153.697 717.432 153.697 713.586C153.697 709.739 151.265 706.62 148.264 706.62C145.264 706.62 142.832 709.739 142.832 713.586C142.832 717.432 145.264 720.551 148.264 720.551Z" fill="#3F3D56"/>
<path d="M148.264 712.044C151.265 712.044 153.697 708.925 153.697 705.078C153.697 701.231 151.265 698.113 148.264 698.113C145.264 698.113 142.832 701.231 142.832 705.078C142.832 708.925 145.264 712.044 148.264 712.044Z" fill="#3F3D56"/>
<path d="M148.264 703.518C151.265 703.518 153.697 700.4 153.697 696.553C153.697 692.706 151.265 689.588 148.264 689.588C145.264 689.588 142.832 692.706 142.832 696.553C142.832 700.4 145.264 703.518 148.264 703.518Z" fill="#3F3D56"/>
<path d="M148.264 695.02C151.265 695.02 153.697 691.901 153.697 688.054C153.697 684.208 151.265 681.089 148.264 681.089C145.264 681.089 142.832 684.208 142.832 688.054C142.832 691.901 145.264 695.02 148.264 695.02Z" fill="#3F3D56"/>
<path d="M168.612 629.842C169.347 628.904 170.018 627.92 170.62 626.895L156.34 624.596L171.785 624.714C173.265 621.558 174.073 618.14 174.157 614.669C174.242 611.198 173.602 607.746 172.277 604.525L151.57 615.076L170.65 601.322C168.864 598.29 166.457 595.65 163.581 593.567C160.705 591.485 157.421 590.004 153.935 589.219C150.448 588.433 146.833 588.359 143.316 589C139.798 589.642 136.454 590.987 133.491 592.949C130.528 594.912 128.011 597.451 126.095 600.407C124.18 603.364 122.908 606.675 122.359 610.134C121.81 613.593 121.996 617.126 122.905 620.512C123.813 623.897 125.425 627.064 127.64 629.813C126.467 631.247 125.457 632.802 124.628 634.45L143.175 643.881L123.403 637.387C122.017 641.413 121.682 645.715 122.429 649.9C123.176 654.085 124.982 658.02 127.68 661.349C124.659 665.106 122.779 669.62 122.257 674.373C121.734 679.126 122.589 683.928 124.723 688.228C126.858 692.528 130.187 696.154 134.329 698.691C138.471 701.228 143.259 702.573 148.146 702.573C153.033 702.573 157.821 701.228 161.963 698.691C166.105 696.154 169.434 692.528 171.569 688.228C173.704 683.928 174.559 679.126 174.036 674.373C173.513 669.62 171.633 665.106 168.612 661.349C172.223 656.86 174.186 651.313 174.186 645.6C174.186 639.888 172.223 634.341 168.612 629.852V629.842Z" fill="#FAB510"/>
<path opacity="0.1" d="M122.1 645.623C122.101 651.326 124.064 656.863 127.673 661.341C124.652 665.099 122.773 669.612 122.25 674.366C121.727 679.119 122.582 683.92 124.717 688.221C126.851 692.521 130.18 696.147 134.322 698.684C138.464 701.22 143.252 702.566 148.139 702.566C153.026 702.566 157.814 701.22 161.956 698.684C166.098 696.147 169.427 692.521 171.562 688.221C173.697 683.92 174.552 679.119 174.029 674.366C173.506 669.612 171.626 665.099 168.605 661.341C172.069 656.999 122.1 642.724 122.1 645.623Z" fill="black"/>
</g>
<defs>
<linearGradient id="paint0_linear_1054_16123" x1="604.415" y1="752.876" x2="591.693" y2="430.497" gradientUnits="userSpaceOnUse">
<stop stop-color="#808080" stop-opacity="0.25"/>
<stop offset="0.54" stop-color="#808080" stop-opacity="0.12"/>
<stop offset="1" stop-color="#808080" stop-opacity="0.1"/>
</linearGradient>
<clipPath id="clip0_1054_16123">
<rect width="1027" height="772" fill="white"/>
</clipPath>
</defs>
</svg>
