<svg width="81" height="73" viewBox="0 0 81 73" fill="none" xmlns="http://www.w3.org/2000/svg">
<path d="M26.4609 68H24.5781V58.1719H21.2344V56.5781H29.7969V58.1719H26.4609V68ZM38.625 68L37.5078 64.8281H33.1406L32.0234 68H30.0469L34.2969 56.5312H36.375L40.6172 68H38.625ZM37.0234 63.2188L35.9375 60.0938C35.8958 59.9583 35.8359 59.7682 35.7578 59.5234C35.6797 59.2734 35.6016 59.0208 35.5234 58.7656C35.4453 58.5052 35.3802 58.2865 35.3281 58.1094C35.276 58.3229 35.2109 58.5625 35.1328 58.8281C35.0599 59.0885 34.987 59.3333 34.9141 59.5625C34.8464 59.7917 34.7943 59.9688 34.7578 60.0938L33.6641 63.2188H37.0234ZM48.7188 64.8906C48.7188 65.5677 48.5521 66.151 48.2188 66.6406C47.8906 67.1302 47.4167 67.5052 46.7969 67.7656C46.1823 68.026 45.4479 68.1562 44.5938 68.1562C44.1771 68.1562 43.7786 68.1328 43.3984 68.0859C43.0182 68.0391 42.6589 67.9714 42.3203 67.8828C41.987 67.7891 41.6823 67.6771 41.4062 67.5469V65.7812C41.8698 65.9844 42.388 66.1693 42.9609 66.3359C43.5339 66.4974 44.1172 66.5781 44.7109 66.5781C45.1953 66.5781 45.5964 66.5156 45.9141 66.3906C46.237 66.2604 46.4766 66.0781 46.6328 65.8438C46.7891 65.6042 46.8672 65.3255 46.8672 65.0078C46.8672 64.6693 46.776 64.3828 46.5938 64.1484C46.4115 63.9141 46.1354 63.7005 45.7656 63.5078C45.401 63.3099 44.9427 63.099 44.3906 62.875C44.0156 62.724 43.6562 62.5521 43.3125 62.3594C42.974 62.1667 42.6719 61.9401 42.4062 61.6797C42.1406 61.4193 41.9297 61.112 41.7734 60.7578C41.6224 60.3984 41.5469 59.9766 41.5469 59.4922C41.5469 58.8464 41.7005 58.2943 42.0078 57.8359C42.3203 57.3776 42.7578 57.026 43.3203 56.7812C43.888 56.5365 44.5495 56.4141 45.3047 56.4141C45.9036 56.4141 46.4661 56.4766 46.9922 56.6016C47.5234 56.7266 48.0443 56.9036 48.5547 57.1328L47.9609 58.6406C47.4922 58.4479 47.0365 58.2943 46.5938 58.1797C46.1562 58.0651 45.7083 58.0078 45.25 58.0078C44.8542 58.0078 44.5182 58.0677 44.2422 58.1875C43.9661 58.3073 43.7552 58.4766 43.6094 58.6953C43.4688 58.9089 43.3984 59.1641 43.3984 59.4609C43.3984 59.7943 43.4792 60.0755 43.6406 60.3047C43.8073 60.5286 44.0625 60.7344 44.4062 60.9219C44.7552 61.1094 45.2031 61.3177 45.75 61.5469C46.3802 61.8073 46.9141 62.0807 47.3516 62.3672C47.7943 62.6536 48.1328 62.9974 48.3672 63.3984C48.6016 63.7943 48.7188 64.2917 48.7188 64.8906ZM59.6328 68H57.4766L53.9219 62.8125L52.7969 63.7266V68H50.9219V56.5781H52.7969V62.0391C53.026 61.7578 53.2578 61.4766 53.4922 61.1953C53.7266 60.9141 53.9609 60.6328 54.1953 60.3516L57.4141 56.5781H59.5312L55.2656 61.5781L59.6328 68Z" fill="black"/>
<rect width="27" height="24.545" fill="#DAD9D7"/>
<rect x="27" y="24.5449" width="27" height="24.545" fill="#868781"/>
<rect x="54" width="27" height="24.545" fill="#FAB510"/>
</svg>
