<svg width="625" height="594" viewBox="0 0 625 594" fill="none" xmlns="http://www.w3.org/2000/svg">
<path d="M192.693 435.014H114.53C112.559 435.014 110.956 433.453 110.956 431.535C110.956 429.617 112.559 428.058 114.53 428.058H192.693C194.664 428.058 196.267 429.617 196.267 431.535C196.267 433.453 194.664 435.014 192.693 435.014H192.693Z" fill="#FAB510"/>
<path d="M53.0996 453.63C53.0996 454.255 53.6152 454.757 54.2572 454.757H252.97C253.612 454.757 254.128 454.255 254.128 453.63C254.128 453.005 253.612 452.504 252.97 452.504H54.2572C53.6152 452.504 53.0996 453.005 53.0996 453.63Z" fill="#3F3D56"/>
<path d="M472.354 226.645C507.272 226.645 535.58 199.095 535.58 165.11C535.58 131.125 507.272 103.575 472.354 103.575C437.435 103.575 409.128 131.125 409.128 165.11C409.128 199.095 437.435 226.645 472.354 226.645Z" fill="#FDDC8C"/>
<path d="M0 531.389C0 532.014 0.515561 532.516 1.15757 532.516H509.19C509.831 532.516 510.347 532.014 510.347 531.389C510.347 530.764 509.831 530.263 509.19 530.263H1.15757C0.515561 530.263 0 530.764 0 531.389Z" fill="#3F3D56"/>
<path d="M7.3517 455.305L5.72656 453.572L164.339 312.708L221.484 337.64L283.192 234.646L333.891 210.862L380.866 287.058C406.227 223.158 469.829 156.303 546.04 88.4744L547.915 89.9518C476.436 156.556 415.279 223.462 380.571 291.143L337.122 220.457C335.069 217.117 330.756 215.827 327.131 217.469L327.131 217.469C299.418 230.019 276.303 250.504 260.875 276.186L222.221 340.533L213.397 336.684C183.887 323.809 149.341 329.205 125.452 350.42L7.3517 455.305Z" fill="#3F3D56"/>
<path d="M549.615 101.299L547.207 101.462L543.321 93.2662L534.622 91.5463L534.284 89.22L548.624 87.2366L549.615 101.299Z" fill="#3F3D56"/>
<path d="M302.205 151.451L310.731 119.55L343.946 117.995L353.883 161.97L302.205 151.451Z" fill="#FFB6B6"/>
<path opacity="0.1" d="M302.205 151.451L310.731 119.55L343.946 117.995L353.883 161.97L302.205 151.451Z" fill="black"/>
<path d="M324.055 137.407C346.197 137.407 364.147 119.938 364.147 98.388C364.147 76.8384 346.197 59.3689 324.055 59.3689C301.914 59.3689 283.964 76.8384 283.964 98.388C283.964 119.938 301.914 137.407 324.055 137.407Z" fill="#FFB6B6"/>
<path d="M346.177 106.644H346.177C346.177 106.644 330.947 77.2748 313.103 78.9704C295.258 80.666 285.858 82.7281 285.858 82.7281C285.858 82.7281 280.561 59.8543 305.499 51.056C305.499 51.056 273.791 20.6351 311.542 5.71228C349.294 -9.21053 370.418 9.82161 370.418 9.82161C370.418 9.82161 398.362 36.9722 363.168 57.2648C363.168 57.2648 389.301 91.4771 357.66 119.676C357.66 119.676 364.737 96.8568 357.353 101.065C349.969 105.273 346.177 106.644 346.177 106.644V106.644L346.177 106.644L346.177 106.644Z" fill="#2F2E41"/>
<path d="M279.829 312.794L274.496 317.769L235.97 398.167L231.753 531.15H296.482L326.846 465.295L347.304 530.515H405.505L418.997 412.122L382.729 328.391L279.829 312.794Z" fill="#2F2E41"/>
<path d="M346.874 148.215H303.646L256.626 172.841L267.591 220.453C267.591 220.453 265.06 249.184 270.964 270.527C276.869 291.87 274.338 319.78 274.338 319.78L382.72 328.399L386.094 231.535L384.407 166.685L346.874 148.215V148.215Z" fill="#E6E6E6"/>
<path d="M263.8 173.244C263.8 173.244 237.653 174.065 233.436 190.483C229.218 206.901 225.845 291.452 225.845 291.452C225.845 291.452 228.375 341.623 256.63 317.769C284.885 293.915 282.355 221.676 282.355 221.676L263.8 173.244Z" fill="#E6E6E6"/>
<path d="M517.403 592.057H363.318C358.1 592.057 353.854 587.925 353.854 582.846V427.817C353.854 422.738 358.1 418.606 363.318 418.606H517.403C522.622 418.606 526.867 422.738 526.867 427.817V582.846C526.867 587.925 522.622 592.057 517.403 592.057Z" fill="white"/>
<path d="M517.406 593.004H363.321C357.567 593.004 352.885 588.448 352.885 582.847V427.818C352.885 422.217 357.567 417.66 363.321 417.66H517.406C523.161 417.66 527.843 422.217 527.843 427.818V582.847C527.843 588.448 523.161 593.004 517.406 593.004ZM363.321 419.554C358.639 419.554 354.83 423.261 354.83 427.818V582.847C354.83 587.404 358.639 591.111 363.321 591.111H517.406C522.088 591.111 525.897 587.404 525.897 582.847V427.818C525.897 423.261 522.088 419.554 517.406 419.554H363.321Z" fill="#3F3D56"/>
<path d="M202.443 169.051H187.936C186.17 169.051 184.733 167.971 184.733 166.645V105.858C184.733 104.531 186.17 103.451 187.936 103.451H202.443C204.209 103.451 205.646 104.531 205.646 105.858V166.645C205.646 167.971 204.209 169.051 202.443 169.051V169.051V169.051Z" fill="#FAB510"/>
<path d="M154.483 133.229C153.056 133.229 151.895 134.101 151.895 135.173V166.577C151.895 167.649 153.056 168.521 154.483 168.521H168.99C170.417 168.521 171.578 167.649 171.578 166.577V135.173C171.578 134.101 170.417 133.229 168.99 133.229H154.483Z" fill="#FAB510"/>
<path d="M235.898 169.052H221.391C219.625 169.052 218.188 167.972 218.188 166.646V67.0269C218.188 65.7 219.625 64.6206 221.391 64.6206H235.898C237.664 64.6206 239.101 65.7 239.101 67.0269V166.646C239.101 167.972 237.664 169.052 235.898 169.052V169.052V169.052Z" fill="#FAB510"/>
<path d="M416.743 441.163C424.257 440.463 429.431 430.581 428.3 419.086C427.914 414.488 426.401 410.048 423.889 406.136L422.441 393.126L422.663 393.061L426.303 331.377C427.149 317.034 421.316 302.941 410.077 293.628C403.391 288.087 396.259 285.282 391.673 292.282C384.063 303.898 393.92 351.779 400.393 379.001L402.903 408.091C401.198 412.397 400.578 417.038 401.094 421.625C402.223 433.116 409.229 441.863 416.743 441.163V441.163Z" fill="#FFB6B6"/>
<path d="M375.13 168.325C375.13 168.325 397.06 160.116 407.181 184.742C417.302 209.369 428.267 330.86 428.267 330.86L376.817 321.831L375.13 168.325V168.325V168.325Z" fill="#E6E6E6"/>
<path d="M74.0145 156.276H44.4861C42.5155 156.276 40.9121 154.715 40.9121 152.798C40.9121 150.88 42.5155 149.32 44.4861 149.32H74.0145C75.985 149.32 77.5877 150.88 77.5877 152.798C77.5877 154.715 75.985 156.276 74.0145 156.276Z" fill="#E6E6E6"/>
<path d="M74.0145 106.968H44.4861C42.5155 106.968 40.9121 105.408 40.9121 103.49C40.9121 101.572 42.5155 100.012 44.4861 100.012H74.0145C75.985 100.012 77.5877 101.572 77.5877 103.49C77.5877 105.408 75.985 106.968 74.0145 106.968Z" fill="#E6E6E6"/>
<path d="M74.0145 71.4175H44.4861C42.5155 71.4175 40.9121 69.857 40.9121 67.9391C40.9121 66.0213 42.5155 64.4614 44.4861 64.4614H74.0145C75.985 64.4614 77.5877 66.0212 77.5877 67.9391C77.5877 69.857 75.985 71.4175 74.0145 71.4175Z" fill="#E6E6E6"/>
<path d="M39.7251 169.225C39.7251 169.85 40.2407 170.352 40.8827 170.352H239.596C240.238 170.352 240.753 169.85 240.753 169.225C240.753 168.6 240.238 168.098 239.596 168.098H40.8827C40.2407 168.098 39.7251 168.6 39.7251 169.225Z" fill="#3F3D56"/>
<path d="M422.974 460.809C422.974 461.434 423.49 461.936 424.132 461.936H622.845C623.487 461.936 624.002 461.434 624.002 460.809C624.002 460.185 623.487 459.683 622.845 459.683H424.132C423.49 459.683 422.974 460.185 422.974 460.809Z" fill="#3F3D56"/>
<path d="M230.988 163.531C223.474 164.232 218.3 174.114 219.43 185.608C219.817 190.206 221.33 194.647 223.842 198.559L225.29 211.569L225.068 211.633L221.428 273.318C220.582 287.66 226.415 301.754 237.654 311.067C244.339 316.607 251.472 319.412 256.058 312.412C263.668 300.797 253.811 252.916 247.337 225.694L244.828 196.604C246.533 192.298 247.153 187.657 246.637 183.07C245.508 171.579 238.502 162.831 230.988 163.531H230.988V163.531Z" fill="#FFB6B6"/>
<path d="M364.61 552.635C364.61 553.259 365.126 553.761 365.768 553.761H564.481C565.123 553.761 565.639 553.259 565.639 552.635C565.639 552.01 565.123 551.508 564.481 551.508H365.768C365.126 551.508 364.61 552.01 364.61 552.635Z" fill="#3F3D56"/>
<path d="M446.452 551.327H433.752C432.206 551.327 430.948 550.382 430.948 549.22V496.005C430.948 494.843 432.206 493.898 433.752 493.898H446.452C447.998 493.898 449.256 494.843 449.256 496.005V549.22C449.256 550.382 447.998 551.327 446.452 551.327Z" fill="#FAB510"/>
<path d="M404.462 519.962C403.213 519.962 402.197 520.726 402.197 521.664V549.156C402.197 550.095 403.213 550.859 404.462 550.859H417.162C418.411 550.859 419.428 550.095 419.428 549.156V521.664C419.428 520.726 418.411 519.962 417.162 519.962H404.462Z" fill="#FAB510"/>
<path d="M475.739 551.327H463.039C461.493 551.327 460.235 550.382 460.235 549.22V462.01C460.235 460.849 461.493 459.904 463.039 459.904H475.739C477.285 459.904 478.543 460.849 478.543 462.01V549.22C478.543 550.382 477.285 551.327 475.739 551.327Z" fill="#FAB510"/>
</svg>
