<svg width="222" height="222" viewBox="0 0 222 222" fill="none" xmlns="http://www.w3.org/2000/svg">
<circle cx="101.921" cy="120.082" r="65.5909" fill="#3D3113"/>
<path d="M92.4973 74.0028V134.128H143.372V122.43H106.372V74.0028H92.4973Z" fill="#FAB510"/>
<path d="M165.763 110.997C167.157 120.191 166.542 129.578 163.961 138.512C161.379 147.445 156.892 155.713 150.808 162.746C144.725 169.779 137.189 175.41 128.721 179.251C120.252 183.093 111.052 185.053 101.753 184.997C65.6777 184.997 37.0027 156.322 37.0027 120.247C37.0027 84.1722 65.6777 55.4972 101.753 55.4972C108.228 55.4972 114.425 56.4222 120.253 58.1797V39.1247C114.333 37.7372 108.135 36.9972 101.753 36.9972C55.5027 36.9972 18.5027 73.9972 18.5027 120.247C18.5027 166.497 55.5027 203.497 101.753 203.497C113.479 203.546 125.082 201.107 135.796 196.34C146.509 191.574 156.09 184.589 163.906 175.847C171.721 167.105 177.593 156.805 181.134 145.626C184.675 134.447 185.804 122.645 184.448 110.997H165.763V110.997Z" fill="#FAB510"/>
<path d="M182.008 49.7885V32.6488H170.582V49.7885H153.442V61.215H170.582V78.3547H182.008V61.215H199.148V49.7885H182.008Z" fill="#FAB510"/>
</svg>
